<?xml version="1.0" encoding="UTF-8" standalone="no"?>
<svg
   width="1499"
   height="319"
   viewBox="0 0 1499 319"
   version="1.1"
   id="svg34"
   sodipodi:docname="corpus-liturgicum-logo.svg"
   inkscape:version="1.4.4 (dcaf3e7, 2026-05-05)"
   xmlns:inkscape="http://www.inkscape.org/namespaces/inkscape"
   xmlns:sodipodi="http://sodipodi.sourceforge.net/DTD/sodipodi-0.dtd"
   xmlns="http://www.w3.org/2000/svg"
   xmlns:svg="http://www.w3.org/2000/svg">
  <defs
     id="defs34" />
  <sodipodi:namedview
     id="namedview34"
     pagecolor="#ffffff"
     bordercolor="#000000"
     borderopacity="0.25"
     inkscape:showpageshadow="2"
     inkscape:pageopacity="0.0"
     inkscape:pagecheckerboard="0"
     inkscape:deskcolor="#d1d1d1"
     inkscape:zoom="0.75"
     inkscape:cx="762"
     inkscape:cy="520.66667"
     inkscape:window-width="2099"
     inkscape:window-height="1186"
     inkscape:window-x="0"
     inkscape:window-y="810"
     inkscape:window-maximized="0"
     inkscape:current-layer="svg34" />
  <path
     fill="#ede3d2"
     d="M 26.019833,114.4302 C 39.516463,78.585949 57.696167,53.331908 94.019441,36.945634 125.19738,23.193357 160.55743,22.368296 192.34352,34.649937 c 29.93842,11.515966 54.12595,34.377465 67.31011,63.618655 2.20275,4.985208 4.81995,11.825848 6.37839,17.049928 1.21629,14.58509 0.98387,34.28838 1.19046,49.17947 0.16398,11.79744 0.70241,33.28256 -0.49581,44.16585 -5.3093,-1.23049 -11.02532,-1.61009 -16.47407,-1.50421 -20.48187,0.52808 -39.89852,9.23446 -53.91807,24.17462 -17.72264,18.69101 -21.70849,38.69257 -21.11454,63.38108 l -57.52819,-0.1614 c -0.001,-4.29186 -0.11621,-8.58243 -0.34346,-12.86783 -1.31958,-21.04869 -10.90653,-40.721 -26.673045,-54.72763 -19.157123,-16.94793 -40.371082,-20.75818 -64.97309,-19.18424 -0.215619,-17.81302 -0.240153,-35.62733 -0.07102,-53.44164 0.466112,-13.07312 -0.129126,-26.47161 0.388637,-39.90239 z"
     id="path2"
     style="stroke-width:1.29117" />
  <path
     fill="#0a4337"
     d="m 146.08725,217.6362 c 28.51039,-46.49899 66.1584,-65.62384 120.15394,-63.42885 -0.0413,10.10471 -0.77341,46.34535 0.48548,54.45649 -5.3093,-1.23049 -11.02532,-1.61009 -16.47407,-1.50421 -20.48187,0.52808 -39.89852,9.23446 -53.91807,24.17462 -17.72264,18.69101 -21.70849,38.69257 -21.11454,63.38108 l -57.52819,-0.1614 c -0.001,-4.29186 -0.11621,-8.58243 -0.34346,-12.86783 -1.31958,-21.04869 -10.90653,-40.721 -26.673045,-54.72763 C 71.518172,210.01054 50.304213,206.20029 25.702205,207.77423 25.486586,189.96121 25.462052,172.1469 25.631186,154.33259 80.116076,152.88003 116.56588,170.48 146.08724,217.6362 Z"
     id="path3"
     style="stroke-width:1.29117" />
  <path
     fill="#730c2a"
     d="M 26.019833,114.4302 C 39.516463,78.585949 57.696167,53.331908 94.019441,36.945634 125.19738,23.193357 160.55743,22.368296 192.34352,34.649937 c 29.93842,11.515966 54.12595,34.377465 67.31011,63.618655 2.20275,4.985208 4.81995,11.825848 6.37839,17.049928 -14.13575,-0.0981 -22.69494,0.20401 -36.57375,3.56751 -2.68564,0.65204 -16.15386,4.34222 -17.93955,4.48554 -11.58182,-20.11131 -24.62266,-33.05919 -47.6249,-39.187098 -18.33336,-4.976169 -37.89979,-2.327979 -54.25249,7.339033 -12.652197,7.344188 -23.2992,19.318525 -29.495545,32.541415 -1.537782,-0.0284 -19.203608,-6.10853 -23.509667,-6.83676 -7.940707,-1.34281 -24.104895,-0.9645 -30.616285,-2.79796 z"
     id="path4"
     style="stroke-width:1.29117" />
  <path
     fill="#fffefe"
     d="m 80.145785,124.06492 c 6.196345,-13.22289 16.843348,-25.197227 29.495545,-32.541415 16.3527,-9.667012 35.91913,-12.315202 54.25249,-7.339033 23.00224,6.127908 36.04308,19.075788 47.6249,39.187098 -2.23889,1.82571 -5.14016,3.00326 -7.75479,4.30735 -10.69349,5.33513 -19.35209,16.96213 -29.59238,22.45737 -3.02005,-13.24357 -14.91562,-22.55163 -28.49488,-22.29856 -13.58055,0.25178 -25.12235,9.99625 -27.64659,23.34311 C 104.56057,143.53839 97.057569,130.504 80.145785,124.06492 Z"
     id="path5"
     style="stroke-width:1.29117" />
  <path
     fill="#b49558"
     d="m 118.03008,151.18084 c 2.52424,-13.34686 14.06604,-23.09133 27.64659,-23.34311 13.57926,-0.25307 25.47483,9.05499 28.49488,22.29856 2.59397,11.37135 -1.95871,23.1817 -11.51467,29.87127 -9.55597,6.68956 -22.21075,6.92456 -32.00817,0.59652 -9.79871,-6.32933 -14.7878,-17.96279 -12.61863,-29.42324 z"
     id="path6"
     style="stroke-width:1.29117" />
  <path
     id="path7"
     style="fill:#730c2a;fill-opacity:1;stroke-width:1.29117"
     d="m 1127.6502,134.41476 c -6.4822,0.0604 -13.2201,1.60222 -18.3215,5.79691 -5.6555,4.64127 -9.9065,11.39825 -10.3421,18.82669 -0.545,7.88699 3.0358,15.55703 8.254,21.3007 1.242,1.39716 2.598,2.69025 4.0228,3.89932 -3.348,2.22474 -6.9908,4.61216 -8.6541,8.43256 -1.5226,3.44134 -0.3504,7.36938 1.5174,10.42813 0.8489,1.46522 1.8415,2.84338 2.8873,4.17364 -4.8386,4.9087 -9.7202,10.26234 -11.6658,17.04247 -1.7837,6.03104 -1.0934,12.86429 2.4157,18.15624 3.9965,6.0361 10.7556,9.87199 17.7714,11.24443 10.0349,1.95036 20.5786,-0.41152 29.4337,-5.31752 8.6526,-4.79004 16.059,-12.47295 19.0609,-22.043 1.5261,-5.05862 1.9622,-10.57906 0.57,-15.71643 -1.2225,-4.60672 -4.7503,-8.37276 -9.0756,-10.27018 -6.3219,-2.82696 -13.3854,-2.99757 -20.1903,-3.25003 -5.1354,-0.22813 -10.3751,0.004 -15.3877,-1.31321 -1.5527,-0.46856 -3.3576,-1.21706 -3.8839,-2.90715 1.0125,-2.58799 3.802,-3.76624 6.3759,-4.1299 6.083,-0.87476 12.3284,-0.22031 18.3449,-1.65565 5.4277,-1.15081 10.4547,-4.30137 13.5608,-8.9393 4.7594,-6.93043 6.4541,-15.94846 4.1981,-24.0833 -0.9923,-3.76742 -2.7936,-7.32337 -5.4068,-10.22797 -1.0694,-1.27018 -2.2126,-2.47626 -3.3763,-3.65986 0.1795,-1.22709 0.3566,-2.45456 0.5346,-3.68187 -7.5386,-0.76781 -15.0416,-2.19393 -22.6434,-2.10572 z m -3.8912,8.9096 c 5.7263,0.0222 11.8599,1.40674 16.0131,5.60491 4.0831,4.06547 5.3851,10.09734 5.1747,15.68348 -0.1404,2.91472 -0.4423,5.86947 -1.3147,8.66257 -1.3975,3.40841 -4.8865,5.2015 -8.008,6.75667 -5.375,-0.0872 -11.1728,-0.81976 -15.4587,-4.36527 -3.7275,-3.07133 -5.1987,-7.89494 -6.2072,-12.43552 -1.0301,-4.82295 -1.0175,-10.32498 2.0318,-14.45484 1.8826,-2.52957 4.6325,-4.39339 7.5677,-5.452 h 0.1292 z m 6.8189,68.66415 c 1.5909,6.1e-4 3.4831,0.04 4.8874,0.0984 1.486,0.0706 2.9531,0.16986 4.5229,0.3445 4.1428,0.52487 8.5485,1.22449 11.9376,3.85156 1.9966,1.5212 2.6436,4.22142 2.1273,6.59825 -0.8801,4.99468 -4.205,9.28523 -8.418,11.98615 -2.0251,1.29951 -4.1492,2.53315 -6.4206,3.32533 -6.8403,1.45258 -14.1753,2.10642 -20.8972,-0.23784 -4.3448,-1.49364 -8.3457,-4.89871 -9.3151,-9.55144 -1.1728,-5.08664 1.4713,-10.43661 5.6241,-13.37429 1.7761,-1.25272 3.7667,-2.33956 5.8931,-2.80229 3.3663,-0.0865 6.6749,-0.22652 10.0585,-0.23829 z" />
  <path
     id="path10"
     style="fill:#730c2a;fill-opacity:1;stroke-width:1.29117"
     d="m 564.00792,133.38082 c -5.90112,3.7102 -11.72284,7.59004 -18.0352,10.58357 -0.84039,0.33445 0.78536,1.03365 1.02588,1.52799 2.62118,2.50579 5.24176,5.01223 7.86269,7.51829 -0.0375,28.65034 -0.28599,57.30134 -0.0177,85.95124 -3.41444,5.09054 -7.78483,9.47161 -12.60657,13.23249 -1.27521,1.04975 -2.55042,2.09951 -3.82563,3.14927 15.71764,0.0491 31.43649,0.25973 47.15301,-0.0352 -3.99958,-3.43475 -8.31674,-6.53262 -11.94066,-10.38127 -1.40112,-1.49816 -2.68151,-3.10319 -3.96193,-4.70426 -0.34062,-10.37298 -0.23765,-20.75319 -0.1488,-31.12937 1.70028,1.78752 3.61798,3.52961 6.08939,4.11092 7.69592,2.54871 16.32594,2.85737 23.91659,-0.23432 8.71141,-3.44377 15.4065,-10.76298 19.5095,-19.03796 4.97146,-10.04337 6.83975,-21.67607 4.95288,-32.74359 -1.42033,-8.28773 -5.40637,-16.42666 -12.22965,-21.56206 -6.55094,-4.98805 -15.18222,-6.79076 -23.27012,-5.77786 -7.02769,0.93697 -13.69908,4.45099 -18.44152,9.69013 0.0332,-3.2264 0.0259,-6.5255 -1.07429,-9.6031 -1.32261,-0.39228 -2.64487,-0.78576 -3.96684,-1.1802 -0.33035,0.20847 -0.66071,0.41693 -0.99107,0.6254 z m 23.03936,14.80813 c 6.30409,0.12447 12.3937,3.1387 16.4867,7.90495 6.43698,7.4168 8.91224,17.84246 7.34956,27.45351 -1.14953,7.05417 -4.95843,13.82319 -11.01862,17.7739 -1.50884,0.9073 -3.01784,2.09278 -4.85793,2.08301 -5.46859,0.644 -11.26555,-0.20401 -15.91597,-3.29628 -3.64292,-2.34199 -6.60757,-5.57051 -9.29299,-8.93212 -0.32381,-10.98479 -0.66777,-22.08222 0.0505,-33.0989 1.93465,-3.21544 4.47598,-6.31337 8.08076,-7.69269 2.24961,-0.93197 4.60943,-1.63623 6.97775,-2.16245 0.71292,-0.0523 1.42621,-0.0382 2.14031,-0.0329 z" />
  <path
     id="path12"
     style="fill:#730c2a;fill-opacity:1;stroke-width:1.29117"
     d="m 457.59715,134.21554 c -4.18356,0.10028 -8.29336,1.11246 -12.27232,2.35072 -6.68857,2.12372 -12.70565,6.22154 -17.14725,11.65296 -8.18024,9.63269 -11.78241,22.93334 -9.61624,35.38006 1.3486,8.24979 4.87276,16.41331 11.1823,22.07459 6.39991,5.85053 15.08546,8.56552 23.61309,9.09092 2.48438,0.14314 4.99966,0.23008 7.47341,-0.005 9.26706,-2.18533 18.01652,-7.15888 23.96936,-14.67988 8.08815,-10.051 10.80553,-23.86973 8.0508,-36.37787 -2.08463,-9.76878 -7.67401,-19.04068 -16.22096,-24.4355 -5.63221,-3.60118 -12.37484,-5.26029 -19.03219,-5.05121 z m -4.62502,9.20464 c 6.0992,0.0872 12.01294,2.86165 16.15,7.31257 6.10226,6.49441 9.04481,15.44782 9.47598,24.23375 0.36466,8.31705 -1.59717,17.09728 -7.07293,23.56809 -3.02699,3.52692 -7.1614,6.17173 -11.69656,7.21364 -1.7264,-0.072 -3.80629,-0.41891 -5.24347,-0.81462 -7.21736,-1.84537 -13.09218,-7.27705 -16.55037,-13.74982 -4.69934,-8.74473 -6.06005,-19.2559 -3.74136,-28.90915 1.61626,-6.69878 5.536,-13.15618 11.71119,-16.51983 2.13943,-1.13372 4.46705,-2.07648 6.88072,-2.33601 z" />
  <path
     id="path14"
     style="fill:#730c2a;fill-opacity:1;stroke-width:1.29117"
     d="m 381.28936,97.308678 c -6.78778,0.03645 -13.50743,1.316238 -20.03879,3.090052 -9.91417,2.73476 -19.2726,7.72513 -26.6734,14.91554 -5.2901,5.07809 -9.8162,11.0464 -12.65861,17.84043 -5.34628,12.54542 -6.26243,26.7858 -3.3622,40.05528 2.51698,11.43602 8.20378,22.48894 17.36544,29.98998 9.66905,7.74303 22.06871,11.61579 34.36074,12.02065 12.34749,0.38704 25.09916,-2.87041 34.93544,-10.54898 3.69686,-2.92562 7.04479,-6.39173 9.48313,-10.44323 1.3642,-2.31232 1.22494,-5.10554 0.67434,-7.6358 -0.19204,-1.13863 -0.38408,-2.27727 -0.57612,-3.41589 -3.09013,1.89691 -6.25772,3.74921 -8.8116,6.36554 -2.512,2.54892 -5.22118,4.99085 -8.51314,6.48714 -3.84867,1.88724 -7.97104,3.19856 -12.21402,3.82276 -2.08958,0.34395 -4.30924,0.57528 -6.2834,0.663 -1.64049,0.0857 -3.66161,0.0803 -5.44809,-0.0395 -1.77201,-0.10756 -3.60883,-0.34215 -5.21952,-0.62965 -9.90877,-1.73306 -19.04745,-7.24032 -25.31558,-15.09226 -11.41392,-14.07703 -14.05699,-34.53223 -6.88398,-51.13621 2.72588,-6.36907 6.80633,-12.28072 12.42776,-16.42175 5.01749,-3.83739 11.07909,-6.13363 17.29979,-7.06392 8.80737,-1.53011 18.20881,-0.53225 26.13004,3.77313 6.95001,3.66827 12.5039,9.50127 16.88782,15.94315 1.43659,1.99801 2.87318,3.99602 4.30978,5.99403 -0.24477,-7.98043 -0.71886,-15.8381 -0.61033,-23.81044 0.0252,-2.05064 0.11815,-4.09942 0.18919,-6.14878 -6.94526,-3.59662 -14.23512,-6.806957 -22.03275,-7.946251 -3.11528,-0.477765 -6.2716,-0.664873 -9.42194,-0.627957 z" />
  <path
     id="path15"
     style="fill:#730c2a;fill-opacity:1;stroke-width:1.29117"
     d="m 1373.321,133.44891 c -6.9658,4.13716 -13.8754,8.36671 -20.7697,12.62172 3.2742,3.42335 6.7942,6.6477 9.6082,10.47816 0.4081,13.43642 0.7933,26.88493 0.4034,40.32644 -0.079,0.66742 0.1754,1.68217 -0.5407,2.19978 -3.3232,4.35774 -7.3679,8.07263 -11.4165,11.73764 -1.0655,0.97954 -2.1309,1.95907 -3.1965,2.93861 14.25,-0.0596 28.5001,-0.12253 42.7499,-0.18409 -0.4914,0.46429 1.3307,0.0954 1.8061,0.21147 15.812,0.0264 31.6231,-0.13667 47.4325,-0.40565 -4.0857,-2.85119 -8.3396,-5.47228 -12.2779,-8.52744 -2.1637,-1.74757 -3.8682,-3.97994 -5.3648,-6.30591 -0.4027,-10.45867 -0.6358,-21.10663 -0.25,-31.6488 0.1251,-2.48278 0.25,-5.31332 0.6883,-7.90663 0.1987,-0.76532 0.3474,-1.52681 -0.1047,-2.23507 -0.4747,-1.40643 -1.1554,-2.79518 -2.3583,-3.72082 -2.2097,-6.32738 -5.4668,-12.68763 -11.0431,-16.6768 -4.2091,-3.05368 -9.7759,-3.93664 -14.7728,-2.59748 -6.5674,1.70757 -12.0795,6.06729 -16.6591,10.92453 -0.015,-4.51826 -0.027,-9.03652 -0.043,-13.55478 -1.2971,0.77504 -2.5941,1.55008 -3.8913,2.32512 z m 20.6109,14.15245 c 3.8569,-0.11194 7.5543,2.01758 9.6322,5.22699 3.3676,5.03853 3.8304,11.30106 4.0347,17.18465 0.2689,9.24755 -0.4043,18.39227 -0.6872,27.64399 -2.2883,3.69225 -5.4409,6.73616 -8.8344,9.40773 -2.2002,1.80801 -4.401,3.61553 -6.6017,5.42311 -3.7252,-3.14689 -7.842,-5.9084 -11.0084,-9.65779 -2.8145,-3.29285 -3.6568,-7.72825 -3.7232,-11.94246 -0.434,-10.26011 0.1045,-20.72637 -0.1162,-31.07791 -0.1831,-1.05658 0.8263,-1.78145 1.3035,-2.62824 3.7704,-5.0625 9.4485,-9.43927 16.0007,-9.58007 z" />
  <path
     id="path16"
     style="fill:#730c2a;fill-opacity:1;stroke-width:1.29117"
     d="m 1031.8033,134.80564 c -7.0488,2.93194 -13.9542,6.18901 -20.8201,9.52241 2.4549,2.22761 5.11,4.26041 7.3183,6.74333 1.824,4.57457 2.2584,9.55787 2.5698,14.43098 0.3163,7.46507 0,15.05531 -1.9582,22.3002 -0.8004,2.83932 -1.983,5.74395 -4.3928,7.6005 -3.9093,3.37756 -9.5483,5.00413 -14.58218,3.54395 -3.71038,-1.10774 -5.96467,-4.67168 -7.08889,-8.17269 -2.06591,-6.43322 -2.11381,-13.28805 -2.053,-19.98008 0.0948,-8.91641 1.12631,-17.8128 0.83224,-26.73334 -0.17515,-3.35403 -0.56534,-6.96197 -2.79734,-9.64333 -0.39446,-0.9067 -0.95376,-1.20585 -1.77412,-0.54342 -5.10484,2.41028 -10.35723,4.57041 -15.18299,7.52227 -1.44236,0.8085 -2.38675,2.18324 -3.45672,3.39564 2.10027,2.17688 4.50545,4.03812 6.53657,6.27932 2.10756,5.41996 2.06133,11.35181 2.09402,17.08027 -0.024,9.52095 -0.92272,19.16449 0.93971,28.57731 1.12287,5.62784 3.75797,11.25969 8.56956,14.63523 4.27688,3.05368 9.6585,4.20887 14.84354,4.17146 5.5706,-0.30912 10.3615,-3.72852 14.2568,-7.46761 1.5663,-1.51468 3.0328,-3.12959 4.4369,-4.79495 0.022,4.85031 0.044,9.70061 0.066,14.55091 8.6509,-3.62444 17.2103,-7.43771 26.1142,-10.45698 0.613,-0.29552 1.8269,-0.49705 2.0654,-0.85109 -3.4097,-2.63439 -6.8506,-5.16609 -10.1469,-7.8423 -1.017,-0.83375 -2.0113,-1.69633 -2.9572,-2.61042 -0.1761,-15.40749 0.049,-30.81532 0.096,-46.22298 0.029,-5.52599 0.06,-11.05196 0.087,-16.57793 -1.2054,0.51444 -2.4108,1.02889 -3.6162,1.54334 z" />
  <path
     id="path17"
     style="fill:#730c2a;fill-opacity:1;stroke-width:1.29117"
     d="m 1337.6221,134.10963 c -6.9148,3.26061 -13.8292,6.52255 -20.7445,9.78214 2.9618,3.03975 6.0297,5.97941 8.8869,9.1189 0.3837,8.20488 0.7887,16.3907 0.079,24.61754 -0.1162,1.37963 -0.2589,2.61876 -0.4325,3.91183 -0.101,0.62256 -0.2536,1.69841 -0.4065,2.49049 -0.8985,4.58708 -2.1888,9.43002 -5.5489,12.86686 -2.3512,2.42695 -5.9747,3.06553 -9.1929,2.43444 -3.426,-0.61951 -6.6873,-2.02007 -9.6759,-3.77362 -1.8121,-1.78798 -2.2788,-4.45576 -2.804,-6.84783 -1.309,-7.6303 -1.1315,-15.41311 -1.0404,-23.12575 0.099,-7.73602 0.596,-15.48045 0.1763,-23.21367 -0.2502,-2.59641 -0.3558,-5.56732 -2.3141,-7.52748 -0.6181,-0.34416 -1.2095,-1.01986 -1.8433,-1.14316 -7.3772,3.64753 -14.7539,7.29658 -22.1317,10.94295 2.9407,1.89784 6.0409,3.56064 8.8618,5.63582 1.6131,1.15845 2.6813,2.99086 2.7832,4.98548 0.8582,7.01697 0.4068,14.10355 0.451,21.15252 0.044,8.12442 0.1453,16.4258 2.6365,24.23836 1.6541,5.21252 4.9388,10.19263 9.9792,12.63328 4.8705,2.41398 10.5759,2.51259 15.8253,1.51087 5.6013,-1.37609 9.9493,-5.57342 13.4845,-9.9206 0.3847,-0.37814 1.0008,-1.43529 1.2285,-1.45413 -0.1097,4.5677 -0.2192,9.13538 -0.3273,13.70311 8.4522,-3.23378 17.0449,-6.14904 25.2063,-10.09028 0.5747,-0.35342 2.0816,-0.56565 0.8806,-1.18801 -3.5365,-3.26773 -7.3215,-6.29689 -10.4994,-9.93023 -0.1982,-5.72451 -0.2216,-11.45279 -0.06,-17.17805 0.1714,-15.45667 0.2257,-30.91431 0.2319,-46.37185 -1.2299,0.58003 -2.4598,1.16005 -3.6895,1.74007 z" />
  <path
     id="path18"
     style="fill:#730c2a;fill-opacity:1;stroke-width:1.29117"
     d="m 691.9601,135.24949 c -6.35628,2.13408 -12.43549,4.98496 -18.38973,8.04814 -0.77652,0.38887 -1.55304,0.77774 -2.32956,1.16659 3.1598,3.09079 6.38465,6.11651 9.47953,9.27274 0.23969,8.03731 0.54319,16.10751 -0.30765,24.12122 -0.0714,0.7008 -0.2075,1.81933 -0.33632,2.6806 -0.79485,5.11849 -1.96803,10.45603 -5.2353,14.61617 -2.08443,2.70716 -5.55711,4.10923 -8.93657,3.82653 -3.97578,-0.27105 -7.7785,-1.77359 -11.24816,-3.65581 -1.80192,-1.67381 -2.25857,-4.26122 -2.76882,-6.56305 -0.56976,-3.00062 -0.76409,-6.05575 -0.91458,-9.10134 -0.022,-0.65965 -0.0617,-1.77665 -0.0796,-2.61359 -0.2377,-10.43881 0.62062,-20.87297 0.29141,-31.30994 -0.22808,-3.11818 -0.24891,-6.50455 -2.03511,-9.20465 -0.58983,-0.77369 -1.43115,-1.28462 -2.16372,-1.90903 -6.86281,2.88916 -13.72252,5.78566 -20.58311,8.68011 3.285,3.16661 6.63903,6.26273 9.86033,9.49466 0.0737,12.41749 -0.84416,24.92635 1.08081,37.25643 1.11096,6.85623 3.09239,13.94265 7.84896,19.21219 3.59079,4.0064 8.94065,6.17019 14.28043,6.21045 5.90253,0.25643 11.3326,-2.88955 15.5813,-6.72761 2.00332,-1.79361 3.83196,-3.7787 5.5068,-5.8807 -0.0117,4.931 -0.0225,9.862 -0.0353,14.79301 8.90477,-3.99812 17.80775,-8.00019 26.71113,-12.00135 -3.55509,-2.74389 -7.60073,-5.05963 -10.29925,-8.739 -2.1044,-3.01672 -1.6437,-6.87635 -1.62825,-10.34979 0.2429,-8.54489 0.038,-17.09468 0.0602,-25.6417 -0.0287,-8.97407 -0.0163,-17.94823 0.0652,-26.92202 -1.15837,0.41358 -2.31673,0.82717 -3.47508,1.24074 z" />
  <path
     id="path19"
     style="fill:#730c2a;fill-opacity:1;stroke-width:1.29117"
     d="m 839.07056,98.345151 c -7.60611,0.178391 -15.21474,0.401674 -22.82225,0.171675 -6.48105,-0.141747 -12.96305,-0.04269 -19.44349,0.078 4.55199,4.573464 9.40302,8.868654 13.60276,13.779234 0.73748,0.97479 1.65832,1.90688 2.18047,2.99136 0.38226,27.03263 0.43984,54.06997 0.14963,81.10381 -4.71953,6.73694 -11.37742,11.70596 -17.4411,17.14154 -0.0547,0.32021 1.4678,0.0468 2.03378,0.13332 27.50685,-0.0882 55.01371,-0.17183 82.5206,-0.26014 1.38747,-8.61419 2.68675,-17.25919 4.88584,-25.71379 0.4359,-1.81359 0.87181,-3.62719 1.30771,-5.44078 -4.91177,3.97202 -9.79751,7.97638 -14.47748,12.22171 -3.18337,2.79554 -6.25854,5.53521 -9.72192,8.03428 -0.8389,0.56972 -1.99061,0.23498 -2.96405,0.41585 -8.01142,0.44658 -15.91239,0.69566 -23.951,0.76609 -2.18486,0.005 -4.36972,0.0278 -6.55456,0.007 -0.0117,-16.91924 0.0519,-33.83911 -0.007,-50.75798 -0.18278,-8.04726 -0.7199,-16.00154 -0.34655,-24.07006 0.32803,-5.74443 0.85079,-11.68222 3.41578,-16.92338 0.61563,-1.16757 1.3028,-2.35466 2.46995,-3.04218 4.1749,-3.41521 8.03037,-7.19941 12.0507,-10.792535 -2.29569,0.05217 -4.5914,0.104196 -6.8871,0.156357 z" />
  <path
     id="path20"
     style="fill:#730c2a;fill-opacity:1;stroke-width:1.29117"
     d="m 839.07056,98.345151 c -5.34524,0.142319 -10.69992,0.220326 -16.04078,0.320107 -2.31101,0.554022 -4.62201,1.108023 -6.93302,1.662032 2.23062,1.13256 4.40418,2.41098 6.67009,3.45326 1.55842,0.44059 3.14905,0.75177 4.74367,1.02804 0.74657,2.32236 1.5304,4.64028 2.31252,6.96021 2.4701,-1.56047 4.86075,-3.24657 6.9962,-5.24926 3.05535,-2.76646 6.09331,-5.55249 9.1384,-8.330746 -2.29569,0.05217 -4.5914,0.104196 -6.88708,0.156357 z" />
  <path
     id="path21"
     style="fill:#730c2a;fill-opacity:1;stroke-width:1.29117"
     d="m 736.27607,134.28614 c -2.14766,-0.0515 -4.13048,0.89464 -6.11924,1.58915 -6.07061,2.33446 -11.85435,6.37969 -14.69385,12.40346 -2.35329,4.92824 -2.59429,10.695 -1.31961,15.94975 1.4209,4.6085 5.37379,7.80455 9.24405,10.37321 6.29845,4.20923 13.43096,7.08643 19.42554,11.76003 2.24264,1.82299 4.64214,4.30013 4.35485,7.42678 -0.4212,3.10862 -2.526,5.64566 -4.51663,7.93788 -2.19961,2.4291 -5.47842,4.32057 -8.85224,3.60189 -4.362,-0.91684 -7.73779,-4.16389 -10.61737,-7.37091 -3.73109,-4.25369 -6.59333,-9.16905 -9.1849,-14.17355 -1.29567,-2.33081 -2.59134,-4.66159 -3.88702,-6.99238 -0.19843,5.46055 -0.37876,10.92138 -0.29074,16.38628 0.0129,5.6314 0.022,11.2628 0.036,16.8942 5.52843,1.80126 11.11762,3.51515 16.90257,4.2633 3.17702,0.51753 6.428,0.29689 9.62153,0.0361 6.06533,-0.59724 12.2188,-2.78362 16.47202,-7.30704 4.8353,-5.06961 6.92933,-12.08616 7.77067,-18.8919 0.46438,-4.64505 -1.80543,-9.13976 -5.07739,-12.31365 -5.21223,-5.11567 -11.92843,-8.23543 -18.26348,-11.69453 -3.60602,-2.01674 -7.44175,-3.88732 -10.30023,-6.94466 -1.06187,-1.10331 -1.6277,-2.68335 -1.15899,-4.18704 0.52817,-2.8783 1.51356,-6.17984 4.30118,-7.62769 3.00401,-1.34913 6.402,-0.18836 9.19974,1.13436 4.39229,2.11317 8.02211,5.49152 11.07662,9.24074 2.17264,2.57911 4.29877,5.19712 6.45242,7.79211 -0.17451,-8.57088 -0.35091,-17.14171 -0.52958,-25.7125 -6.52985,-1.87817 -13.16771,-3.90562 -20.04596,-3.57343 z" />
  <path
     id="path22"
     style="fill:#730c2a;fill-opacity:1;stroke-width:1.29117"
     d="m 1246.1632,134.39711 c -7.9988,0.46826 -16.1575,2.11122 -23.0834,6.31472 -7.578,4.57313 -13.2626,12.0207 -15.9694,20.42143 -3.6698,11.19402 -3.0831,23.85818 2.0896,34.49025 3.2591,6.76096 8.7174,12.49209 15.5149,15.74356 7.1403,3.57323 15.5159,4.36289 23.2645,2.55754 7.1688,-1.54018 13.5989,-5.6497 18.5064,-11.03377 2.619,-2.86 5.038,-5.9317 7.0858,-9.22433 1.2512,-2.24661 2.5025,-4.49324 3.7537,-6.73986 -2.818,1.45415 -5.7572,2.69111 -8.4914,4.29545 -4.4805,2.74794 -8.8735,5.70771 -13.6956,7.83451 -6.9092,1.44434 -14.4164,1.87271 -21.0343,-0.98645 -5.44,-2.29376 -9.4919,-7.07515 -11.7387,-12.44487 -3.1404,-7.58325 -4.256,-16.15795 -2.419,-24.20962 1.3391,-6.05021 4.907,-11.81746 10.4318,-14.85277 4.1062,-2.34495 9.0719,-3.3814 13.7093,-2.18239 6.6258,1.63302 12.0012,6.33739 16.2232,11.50992 2.8205,3.54608 5.1464,7.44915 7.7243,11.16931 -0.075,-9.42993 -0.1485,-18.85987 -0.2244,-28.28979 -5.9581,-1.99011 -11.9686,-4.30298 -18.3367,-4.38355 -1.1031,-0.0416 -2.2076,-0.0217 -3.3106,0.0104 z" />
  <path
     id="path23"
     style="fill:#730c2a;fill-opacity:1;stroke-width:1.29117"
     d="m 939.07839,123.41711 c -4.1088,6.70099 -9.58518,12.41169 -14.09312,18.8259 -0.95907,1.41997 -1.58846,3.02419 -2.37685,4.53877 2.07298,0.49327 4.14587,0.98668 6.21875,1.4803 0.50786,3.98439 0.31948,8.08248 0.20494,11.9896 -0.40675,11.20899 -1.4233,22.49133 -0.0125,33.66936 0.78402,5.68463 2.237,11.63659 6.17116,16.0121 3.09392,3.53176 7.92634,5.13507 12.54029,4.83995 3.3908,-0.13972 6.81377,-0.94395 9.66037,-2.85892 4.77109,-2.99429 8.56478,-7.27748 11.8555,-11.79588 -1.30906,-1.09416 -2.61718,-2.18952 -3.92646,-3.28341 -4.66935,1.29458 -9.35494,3.00717 -14.26088,2.96315 -2.11912,5.8e-4 -4.29072,-0.98183 -5.30092,-2.92027 -2.02707,-3.83143 -2.11485,-8.30376 -2.25595,-12.53902 -0.33885,-12.06082 -0.0437,-24.12638 0.11746,-36.18761 5.64841,0.22571 11.6388,0.62108 16.88609,-1.88126 1.53181,-0.69576 2.83525,-1.77084 4.14598,-2.80429 -0.21046,-1.4434 -0.42237,-2.88659 -0.63303,-4.32997 -3.29,-1.83985 -6.96081,-3.05477 -10.75096,-3.14777 -2.89012,-0.11955 -5.7691,0.23131 -8.63674,0.54021 -0.0271,-4.10709 0.22389,-8.30756 -0.83442,-12.31593 -0.55159,-1.90839 -1.10308,-3.81678 -1.65468,-5.72518 -1.02134,1.64339 -2.04268,3.28677 -3.06403,4.93017 z" />
  <path
     id="path24"
     style="fill:#730c2a;fill-opacity:1;stroke-width:1.29117"
     d="m 514.98877,133.53969 c -6.37777,4.47275 -12.75458,8.94687 -19.13306,13.41862 2.65042,2.48863 5.84192,4.59453 7.62638,7.84998 1.29136,2.56163 1.33224,5.71038 1.5026,8.3754 0.47742,11.38665 -0.20489,22.77682 -0.17904,34.16565 -3.94289,6.38265 -9.71232,11.28525 -14.96953,16.53306 15.16372,-0.006 30.32742,-0.006 45.49113,-0.0129 -4.08684,-3.72435 -8.42412,-7.188 -12.25996,-11.17832 -0.96535,-1.07455 -2.01717,-2.13732 -2.78681,-3.34305 -0.77654,-5.00967 -0.71722,-10.10414 -0.83459,-15.16081 -0.096,-8.80047 0.0604,-17.60106 0.17798,-26.4006 2.15993,-2.84256 4.43305,-5.86944 7.73696,-7.43938 2.53493,-1.19298 5.34055,0.10446 7.35876,1.70796 3.22562,2.50817 5.71845,5.79052 8.52871,8.72734 0.21812,-4.44504 0.61685,-8.88011 0.81814,-13.32473 0.12395,-3.93654 -0.48339,-8.35907 -3.57125,-11.13276 -1.33562,-1.22345 -3.06224,-2.05538 -4.80795,-2.42305 -5.10126,0.82374 -9.33217,4.12453 -13.10438,7.44902 -0.72335,0.64359 -1.42385,1.31185 -2.11669,1.98807 -0.10975,-3.04171 -0.0582,-6.34985 -1.7552,-9.00542 -0.56067,-0.74227 -1.12136,-1.48449 -1.68205,-2.22677 -0.68005,0.47748 -1.36011,0.95494 -2.04015,1.4324 z" />
  <path
     id="path25"
     style="fill:#730c2a;fill-opacity:1;stroke-width:1.29117"
     d="m 1442.1314,133.69857 c -7.2435,0.30012 -13.9129,3.97678 -19.2078,8.73875 -0.3792,0.53034 -1.6983,1.02433 -1.4523,1.57882 1.9082,1.81459 3.5867,4.01502 6.1042,5.02369 0.6832,0.28163 1.3387,0.93124 2.0791,0.42011 4.3898,-1.44552 9.2533,-2.63961 13.7933,-1.16134 3.9281,1.26781 6.3514,5.02415 7.5851,8.76745 2.1993,6.71259 2.2872,13.87772 2.2352,20.87319 -0.086,6.27034 -0.5767,12.57171 -0.7343,18.89061 -2.8611,4.39339 -6.4689,8.22707 -10.3046,11.77806 -1.7413,1.65669 -3.4814,3.31464 -5.2223,4.97187 10.3715,0.29411 20.747,0.3403 31.1218,0.26588 4.6788,-0.0104 9.3577,-0.0208 14.0365,-0.0313 -3.8499,-3.5839 -8.01,-6.86171 -11.4945,-10.81861 -1.0688,-1.34354 -2.2615,-2.67299 -3.115,-4.13364 -0.6248,-13.88224 0.9282,-27.85364 -0.9828,-41.67271 -1.151,-7.39364 -4.5512,-14.77928 -10.6934,-19.30778 -3.9254,-2.93178 -8.859,-4.40888 -13.7482,-4.18299 z" />
  <path
     id="path26"
     style="fill:#730c2a;fill-opacity:1;stroke-width:1.29117"
     d="m 1068.458,133.5649 c -6.833,3.94752 -13.6536,7.92473 -20.7092,11.46674 3.1131,3.23807 6.8954,6.1591 8.5816,10.46304 1.4289,4.1206 1.1868,8.56504 1.2741,12.86177 0.032,9.87882 -0.5266,19.70064 -0.6764,29.57795 -2.4084,3.61086 -5.3122,6.9913 -6.8797,11.08571 -0.4135,1.1526 -0.4151,2.39262 -0.6025,3.59129 1.8418,0.71112 3.7526,1.24792 5.7406,1.27914 9.789,0.45915 19.5819,-0.32776 29.3744,-0.21115 0.9823,-0.002 1.9646,-0.004 2.9468,-0.006 -3.6978,-3.18773 -7.5934,-6.15622 -11.1151,-9.542 -1.4926,-1.5692 -2.9336,-3.27579 -4.0344,-5.11504 -0.7353,-11.18506 -1.4183,-22.44911 -0.2789,-33.63079 0.5556,-4.52167 1.2829,-9.24117 3.906,-13.08694 0.8015,-0.79161 0.4148,-1.2888 -0.5177,-1.65081 -0.799,-0.5654 -1.8454,-0.96555 -2.4929,-1.63286 -0.9244,-5.84489 -0.5553,-11.78231 -0.6584,-17.67399 -1.286,0.74141 -2.5722,1.48284 -3.8583,2.22426 z" />
  <path
     id="path27"
     style="fill:#730c2a;fill-opacity:1;stroke-width:1.29117"
     d="m 1188.5143,134.73503 c -6.4164,3.39518 -12.8325,6.79083 -19.2491,10.18564 3.0891,3.32944 6.277,6.56672 9.2728,9.98137 -0.055,14.37522 -0.071,28.7639 -0.1513,43.13071 -2.8348,3.80972 -6.2667,7.14198 -9.0302,11.00337 -0.6983,1.23247 -1.3233,2.5086 -1.9953,3.75686 2.3253,0.34728 4.6324,0.9051 6.9689,1.11997 11.284,0.0129 22.5679,0.0254 33.8519,0.0376 -3.5841,-3.16952 -7.372,-6.11811 -10.7833,-9.477 -1.5065,-1.61934 -2.9074,-3.42293 -3.9494,-5.34674 -0.1835,-17.92542 0.1149,-35.85818 -0.4177,-53.77902 -0.1649,-2.98216 -0.075,-6.02404 -0.7724,-8.94325 -0.4026,-0.99716 -0.9158,-1.9515 -1.3592,-2.93287 -0.7953,0.42114 -1.5905,0.84228 -2.3857,1.26342 z" />
  <path
     id="path28"
     style="fill:#730c2a;fill-opacity:1;stroke-width:1.29117"
     d="m 902.32788,134.44754 c -3.25876,2.56748 -6.67278,5.00004 -10.53946,6.56965 -2.42725,1.07304 -4.87887,2.09013 -7.31758,3.13684 3.14286,3.50928 6.55021,6.80538 9.33329,10.6194 0.0104,14.44151 0.21004,28.88475 -0.0729,43.32489 -2.41819,3.32266 -5.24927,6.40465 -7.07796,10.11316 -0.4961,1.0648 -0.58805,2.25361 -0.86577,3.38362 2.05133,0.92079 4.16441,2.09799 6.49939,1.77303 4.63478,-0.10185 9.27622,0.0937 13.91371,0.10948 6.27301,0.0814 12.54591,0.16304 18.81892,0.24345 -4.03112,-3.25067 -8.27696,-6.24922 -12.0997,-9.74937 -1.62917,-1.58228 -3.03019,-3.38901 -4.22408,-5.31851 -0.0364,-17.83941 0.30095,-35.68972 -0.42861,-53.51949 -0.22576,-3.00832 -0.18473,-6.10097 -1.07081,-9.00835 -0.34937,-0.69435 -0.59752,-1.62524 -1.49806,-1.71602 -0.77694,-0.2075 -1.60231,-0.73691 -2.34801,-0.74086 -0.34072,0.2597 -0.68145,0.51942 -1.02207,0.77913 z" />
  <path
     id="path29"
     style="fill:#730c2a;fill-opacity:1;stroke-width:1.29117"
     d="m 1088.2896,134.61147 c -4.8506,0.30325 -9.0918,3.14536 -12.6772,6.21709 -1.5435,1.32836 -2.8992,2.85056 -4.3022,4.3216 1.3665,1.66861 2.6211,3.50337 4.5443,4.58719 0.8053,0.86989 2.0106,0.31597 3.0443,0.37181 2.7152,-0.29668 5.629,0.0206 7.8606,1.73227 2.9094,2.18639 5.4339,4.83519 8.1735,7.22472 0.4906,0.2975 1.4443,1.6287 1.6179,1.21898 -0.1394,-6.79621 0.023,-13.60774 -0.4814,-20.39046 -0.081,-1.42652 -0.5221,-2.98572 -1.8989,-3.67177 -1.7122,-1.17939 -3.8122,-1.716 -5.8809,-1.61143 z" />
  <path
     id="path30"
     style="fill:#730c2a;fill-opacity:1;stroke-width:1.29117"
     d="m 900.2777,104.93466 c -4.31113,0.11453 -8.22385,3.56224 -8.85677,7.83338 -0.81901,4.32672 1.88294,8.95307 6.04495,10.38428 4.08131,1.57472 9.0841,-0.19466 11.27246,-3.98197 2.32645,-3.71524 1.53847,-8.9778 -1.78037,-11.84247 -1.80349,-1.6281 -4.2524,-2.50339 -6.68027,-2.39322 z" />
  <path
     id="path31"
     style="fill:#730c2a;fill-opacity:1;stroke-width:1.29117"
     d="m 1184.7746,105.13894 c -4.3592,0.0104 -8.3543,3.48642 -8.9778,7.79741 -0.8108,4.33014 1.9429,8.94712 6.1267,10.31253 4.2078,1.56255 9.3452,-0.46653 11.3214,-4.50413 2.1992,-4.00229 0.8252,-9.47744 -2.9958,-11.97348 -1.5927,-1.10187 -3.5403,-1.67438 -5.4745,-1.63233 z" />
  <path
     id="path32"
     style="fill:#730c2a;fill-opacity:1;stroke-width:1.29117"
     d="m 1158.2323,129.86792 c -4.1555,0.27684 -7.9522,2.48103 -11.0211,5.18254 -0.9022,0.88461 -1.8963,1.83311 -2.358,3.00679 -0.2927,2.03761 -0.5899,4.07457 -0.8843,6.11192 2.8603,-0.49374 5.7393,-0.84723 8.6388,-0.97767 3.5012,-0.28945 7.2198,-0.40521 10.3455,-2.18973 2.0658,-1.14661 3.1574,-3.75362 2.3457,-6.00509 -0.6404,-2.78173 -3.1634,-4.9823 -6.0352,-5.10355 -0.3417,-0.0289 -0.6885,-0.0337 -1.0314,-0.0252 z" />
  <path
     id="path33"
     style="fill:#730c2a;fill-opacity:1;stroke-width:1.29117"
     d="m 1423.1421,142.28537 c -3.4709,3.97035 -6.0738,8.58231 -9.1089,12.87389 0.9038,0.80433 2.0702,1.36769 2.7992,2.33774 0.7586,1.92518 1.4909,3.86093 2.2395,5.7901 3.1257,-4.249 6.0164,-8.71627 9.8278,-12.40383 1.523,-1.5579 3.0001,-3.15915 4.486,-4.75213 -1.7337,-0.94724 -3.6715,-1.5722 -5.2496,-2.77326 -1.0739,-1.03837 -2.1159,-2.11014 -3.1783,-3.16058 -0.6053,0.69602 -1.2105,1.39204 -1.8157,2.08807 z" />
  <path
     id="path34"
     style="fill:#730c2a;fill-opacity:1;stroke-width:1.29117"
     d="m 1072.6013,143.83881 c -1.0345,1.54002 -2.0466,3.10384 -3.2733,4.50145 -0.3433,0.37753 -1.004,1.13865 -1.4684,1.66279 -0.295,0.57251 -1.7728,1.32539 -0.6304,1.67871 2.0606,1.25332 4.1211,2.50661 6.1817,3.75995 2.3821,-2.39899 5.0391,-4.58183 6.8433,-7.48419 0.7683,-0.69387 0.7243,-1.24624 -0.2626,-1.63433 -1.251,-0.88958 -2.648,-1.63863 -3.4891,-2.97626 -0.6531,-0.80106 -1.3063,-1.6021 -1.9594,-2.40317 -0.6473,0.96501 -1.2945,1.93004 -1.9418,2.89505 z" />
</svg>
