<?xml version="1.0" encoding="UTF-8" standalone="no"?>
<svg
   width="1500"
   height="400"
   viewBox="0 0 1500 400"
   version="1.1"
   id="svg88"
   sodipodi:docname="ecatalogus.svg"
   inkscape:version="1.4.2 (ebf0e940, 2025-05-08)"
   inkscape:export-filename="ecatalogus_flat.svg"
   inkscape:export-xdpi="96"
   inkscape:export-ydpi="96"
   xmlns:inkscape="http://www.inkscape.org/namespaces/inkscape"
   xmlns:sodipodi="http://sodipodi.sourceforge.net/DTD/sodipodi-0.dtd"
   xmlns="http://www.w3.org/2000/svg"
   xmlns:svg="http://www.w3.org/2000/svg">
  <sodipodi:namedview
     id="namedview88"
     pagecolor="#ffffff"
     bordercolor="#000000"
     borderopacity="0.25"
     inkscape:showpageshadow="2"
     inkscape:pageopacity="0.0"
     inkscape:pagecheckerboard="0"
     inkscape:deskcolor="#d1d1d1"
     inkscape:zoom="0.94"
     inkscape:cx="751.06383"
     inkscape:cy="313.29787"
     inkscape:window-width="2304"
     inkscape:window-height="1186"
     inkscape:window-x="68"
     inkscape:window-y="892"
     inkscape:window-maximized="0"
     inkscape:current-layer="svg88" />
  <path
     fill="#f46b2c"
     d="m 1441.7677,135.96132 8.8753,-0.2936 c 0.154,12.61988 0,25.52951 0,38.17537 9.6358,0.0154 25.4515,-0.76239 34.5194,0.1598 1.4535,1.43044 1.1744,2.71361 1.5498,5.15095 v 3.1362 l -36.0499,0.12129 0.077,37.33115 -9.1064,-0.28012 c 0.1444,-12.24349 -0.1347,-24.93845 -0.2406,-37.21372 l -34.7985,0.18386 c 0.019,-2.71938 0.231,-5.86424 0.3561,-8.61732 l 34.8467,0.0722 c 0.077,-12.68918 -0.2214,-25.09247 -0.029,-37.92605 z"
     id="path2"
     style="stroke:#f46b2c;stroke-width:1.92523;stroke-dasharray:none;stroke-opacity:1" />
  <path
     id="path3"
     d="m 1204.782,163.61587 -34.4699,2.71864 c -20.6962,1.6942 -45.0512,2.57169 -59.0861,19.99117 -17.8662,22.16612 -13.1971,52.76928 11.3785,67.47515 -8.3844,2.59136 -18.2232,6.89814 -22.5068,15.03896 -2.0119,3.76769 -2.4164,8.19021 -1.1169,12.26207 3.6676,11.72272 16.2213,14.0149 26.7427,14.95248 -11.2914,4.87372 -25.6632,11.35881 -30.4859,23.70627 -6.6998,17.12683 9.1643,32.16187 24.0559,37.54385 16.4608,5.95281 31.4474,4.76061 47.783,-0.42114 21.6492,-9.30271 43.7224,-30.42958 33.2684,-57.01988 -9.7898,-24.8807 -43.8863,-23.73458 -65.5837,-23.32836 -8.2496,0.078 -25.7105,1.67481 -20.4161,-13.95228 1.0782,-3.20069 5.9769,-6.49084 8.8647,-8.5056 44.2322,23.0912 87.6569,-21.4645 63.322,-64.57038 -4.1104,-7.27063 -10.5507,-10.86354 -17.0676,-15.46388 l 13.1589,2.52499 c 3.5232,-1.3544 22.5534,-10.86451 23.8529,-12.93702 z m -66.9262,9.59982 c 29.091,0.072 51.4342,67.49752 19.9705,83.55946 -30.8133,4.815 -55.3402,-68.60827 -22.8038,-83.35264 0.9509,-0.14184 1.8949,-0.20914 2.8333,-0.20682 z m 8.6673,122.17498 c 18.4214,0.2413 41.7852,5.97998 47.2095,25.37955 4.0623,14.52201 -13.1499,19.83019 -24.1237,22.52744 -57.4296,7.81354 -75.306,-41.8793 -30.6118,-47.69831 2.3632,-0.16616 4.8944,-0.24315 7.526,-0.20868 z"
     style="fill:#153961;fill-opacity:1;stroke:#153961;stroke-width:1.92523;stroke-dasharray:none;stroke-opacity:1" />
  <path
     id="path6"
     d="m 1037.225,169.0663 c -1.8152,-0.0185 -3.6394,0.0509 -5.4635,0.21245 -57.09171,6.8827 -72.81519,81.55536 -29.9557,115.96498 10.1073,8.11003 24.9986,13.00412 38.042,11.98568 56.5151,-5.75548 72.6593,-82.43752 32.2776,-115.34642 -9.8547,-8.19462 -22.1934,-12.68745 -34.9004,-12.81669 z m -11.4029,4.32988 c 1.48,0.10024 2.9514,0.33439 4.5349,0.76709 36.1173,9.88316 62.7039,106.58211 20.5702,119.02391 -24.7681,1.13973 -39.5728,-26.6429 -45.8971,-46.98199 -6.81532,-21.9582 -12.54272,-64.12121 16.2008,-72.77704 1.622,-0.0982 3.1112,-0.1322 4.5912,-0.032 z"
     style="fill:#153961;fill-opacity:1;stroke:#153961;stroke-width:1.92523;stroke-dasharray:none;stroke-opacity:1" />
  <path
     id="path8"
     d="m 719.2765,168.99862 c -1.59867,-0.0134 -3.19869,0.0588 -4.79615,0.17673 -18.88939,3.42017 -31.33414,13.50474 -42.63331,28.86903 10.19409,-9.10537 21.237,-16.47708 35.54531,-15.68196 21.74835,1.21 18.52317,22.91659 18.42691,38.23949 -12.68533,3.38166 -24.73634,8.87831 -36.45714,14.75507 -15.88603,7.96467 -31.86226,19.92123 -26.20305,40.2324 3.57996,12.84417 13.14028,19.40566 25.84583,22.00665 16.32209,-0.3321 27.8794,-11.44613 36.2917,-24.43951 -0.25799,5.98843 0.0365,16.29474 4.97852,20.11151 17.56675,13.56516 36.94103,-8.37817 43.68992,-22.0781 -5.24818,4.70045 -10.709,11.02482 -18.5341,10.54929 -2.25636,-0.1367 -4.08915,-1.00443 -5.57639,-2.75061 -7.63065,-8.95713 1.87946,-76.00666 -4.6307,-93.1104 -3.52798,-9.26805 -11.40835,-15.18471 -21.16061,-16.54681 -1.59071,-0.22237 -3.18808,-0.31943 -4.78674,-0.33278 z m 5.16089,54.1527 0.86673,0.29894 c 0.15017,0.45243 0.2732,0.91313 0.3685,1.38001 0.78068,3.79365 0.57821,34.68775 0.13348,39.79057 -1.54788,17.74772 -24.83214,19.26768 -37.76006,10.06797 -2.83778,-2.5798 -5.66933,-6.87301 -6.95827,-10.43083 -8.89456,-24.564 27.63975,-35.03641 43.34962,-41.10666 z"
     style="fill:#153961;fill-opacity:1;stroke:#153961;stroke-width:1.92523;stroke-dasharray:none;stroke-opacity:1" />
  <path
     id="path10"
     d="m 889.81345,168.88581 c -1.8705,-0.0235 -3.87411,0.0804 -6.01635,0.32337 -19.27346,3.37398 -29.28023,12.17424 -41.33602,27.07166 10.45689,-8.54417 19.52833,-15.22538 33.90209,-13.7699 21.2141,2.14759 18.23389,22.14302 18.04714,37.66229 -19.36684,4.69853 -34.69671,11.78877 -50.52787,23.9206 -18.60156,14.25536 -16.62339,37.77085 3.60981,49.22308 18.36957,8.42673 35.78553,0.0468 45.50986,-16.46785 0.27723,32.09549 30.64279,20.90513 42.76115,2.36517 -19.85489,13.81448 -20.95299,-1.13106 -20.42548,-17.88922 0.42355,-13.45061 -0.19609,-27.48683 0.26886,-40.93744 0.76076,-22.0162 2.26434,-51.14894 -25.79319,-51.50176 z m 2.95364,54.24484 1.07543,0.24817 c 0.93566,1.7173 0.93434,38.32285 0.015,42.62766 -3.73783,17.50515 -25.03479,16.99219 -36.77677,8.01677 -2.80313,-2.72901 -6.42798,-7.91755 -7.59563,-11.5495 -7.89729,-24.55822 27.65774,-33.9284 43.28193,-39.3431 z"
     style="fill:#153961;fill-opacity:1;stroke:#153961;stroke-width:1.92523;stroke-dasharray:none;stroke-opacity:1" />
  <path
     fill="#153961"
     d="m 1233.3338,168.23875 c 2.137,1.28702 1.2803,20.85023 1.2707,24.48603 l -0.1155,46.22283 c -0.019,12.77293 -1.8579,33.54615 11.9556,40.79368 7.0849,3.71665 19.6663,2.00128 25.4901,-3.9034 10.6657,-10.81594 9.01,-27.61838 8.8945,-41.61672 -0.019,-7.19169 0.019,-14.38435 0.1059,-21.57701 0.067,-15.35659 -0.5198,-18.54669 -10.9834,-29.09599 10.5406,-5.49652 21.2064,-10.74951 31.978,-15.75415 0.4332,25.61325 0.4525,51.23132 0.048,76.84553 -0.1444,17.21636 -3.1189,29.58403 11.6476,41.43671 -10.8005,4.09688 -21.8995,8.70973 -32.6519,13.00781 0.4524,-11.43394 0.4332,-22.88328 -0.077,-34.31625 -7.3062,14.89068 -19.0116,33.52209 -38.2062,31.52563 -43.9818,-4.57531 -23.7284,-68.42939 -30.1394,-97.36173 -1.4247,-6.40909 -5.1404,-11.17692 -9.347,-15.66944 8.163,-4.66194 21.3508,-10.65903 30.1298,-15.02353 z"
     id="path12"
     style="fill:#153961;fill-opacity:1;stroke:#153961;stroke-width:1.92523;stroke-dasharray:none;stroke-opacity:1" />
  <path
     fill="#153961"
     d="m 598.58583,113.723 c 17.40985,-1.48628 36.07398,1.339 52.55972,7.00783 l 0.0241,46.84853 c -8.49604,-21.12843 -21.11977,-44.2177 -45.73575,-49.20404 -13.3274,-2.61735 -28.68688,1.10893 -39.72421,8.87915 -39.62026,27.89176 -43.2214,94.74631 -16.83132,132.61364 10.96514,15.73297 27.71175,28.96315 46.76382,32.63937 11.57062,2.23231 19.91553,-0.92796 29.15952,-7.33897 14.83389,-11.664 22.19308,-24.39073 31.0886,-40.45773 -1.39772,13.3043 -2.42868,27.22371 -3.65216,40.61367 -31.86832,23.53978 -87.9127,9.70797 -115.97966,-14.37953 -17.66205,-15.03027 -28.48762,-36.56973 -30.01143,-59.71002 -4.34621,-57.39301 37.73353,-93.56037 92.3388,-97.5119 z"
     id="path13"
     style="fill:#153961;fill-opacity:1;stroke:#153961;stroke-width:1.92523;stroke-dasharray:none;stroke-opacity:1" />
  <path
     id="path14"
     style="fill:#f46b2c;fill-opacity:1;stroke:#f46b2c;stroke-width:1.92523;stroke-dasharray:none;stroke-opacity:1"
     d="m 456.46579,168.92529 c -1.67451,0.0167 -3.41082,0.11434 -5.21166,0.29706 -62.98421,8.95617 -73.32275,87.90934 -27.9835,120.02601 19.86834,14.07343 50.62249,7.21639 63.22234,-10.97607 3.25973,-4.70815 6.12822,-8.34437 7.94157,-13.7793 l -0.3403,-1.1149 -0.40046,-0.15417 c -18.63397,16.29995 -42.86402,16.10467 -61.04706,-0.76708 -14.88996,-13.81641 -17.99217,-31.67745 -17.4756,-50.18757 0.0473,-1.67013 0.11323,-3.34039 0.19929,-5.00861 l 81.04952,0.009 c -3.7128,-20.68148 -14.83659,-38.59517 -39.95414,-38.34478 z m -8.09762,4.9522 c 19.29913,-0.40963 23.80036,14.85563 26.87048,29.72261 l -24.23645,-0.004 -30.90896,-0.0263 c 0.71888,-3.41825 1.76955,-6.77481 3.14167,-10.03037 4.21107,-9.77439 10.61396,-15.25855 21.07223,-19.36698 1.4221,-0.17141 2.77442,-0.26787 4.06103,-0.29518 z" />
  <path
     fill="#153961"
     d="m 963.84417,94.671889 c 2.15626,2.26215 0.0626,133.818841 0.81726,146.272181 1.18786,19.63349 -5.46765,36.21645 13.50259,52.42207 -14.65003,-0.0876 -29.59655,0.11455 -44.26775,0.18097 -0.20312,0.003 -1.27836,-0.38794 -1.55174,-0.48035 0.35039,-2.13989 3.52798,-5.27609 4.99982,-7.14548 8.71744,-11.07874 7.02901,-24.27426 6.99628,-37.61513 l -0.0347,-38.19366 0.0212,-52.48753 c -0.002,-18.01148 3.62232,-35.48967 -12.19922,-47.32213 z"
     id="path16"
     style="fill:#153961;fill-opacity:1;stroke:#153961;stroke-width:1.92523;stroke-dasharray:none;stroke-opacity:1" />
  <path
     fill="#153961"
     d="m 796.10954,142.80166 c 0.80089,2.6366 0.49093,23.39442 0.6334,27.89272 l 26.92914,0.0202 0.12995,8.93306 -27.03695,0.0385 c 0.1184,26.36121 -0.82978,52.92744 -0.38986,79.29635 0.43895,26.30151 16.14497,32.96762 35.17201,14.75014 -3.35856,6.3109 -5.38583,8.77904 -9.98328,14.08401 -17.1817,14.83389 -42.87678,14.4681 -45.84837,-12.41387 -1.10604,-10.0112 -0.40718,-22.12185 -0.39082,-32.35541 l 0.0905,-63.28613 c -2.65874,0.0443 -5.31749,0.0481 -7.97526,0.0106 -2.4152,-0.0501 -4.59264,-0.22429 -6.34556,-2.04941 -0.51789,-6.06158 8.72321,-7.56807 13.79138,-10.737 10.35677,-6.47551 15.28439,-13.94155 21.22373,-24.18377 z"
     id="path17"
     style="fill:#153961;fill-opacity:1;stroke:#153961;stroke-width:1.92523;stroke-dasharray:none;stroke-opacity:1" />
  <path
     fill="#153961"
     d="m 1358.3775,169.28126 c 8.8849,-0.97127 19.31,1.20905 27.8773,3.21129 0.029,7.27544 0.5102,26.5749 -0.3947,32.85981 -3.6868,-8.61059 -6.3725,-15.88892 -12.4851,-23.41368 -10.5888,-13.03669 -37.8596,-13.33125 -38.726,7.1349 -0.5776,14.14659 15.0649,22.22004 25.8173,27.87636 18.4341,9.70027 37.2147,18.19149 36.4735,42.74779 -0.3947,9.97461 -4.7649,19.37743 -12.1386,26.10322 -10.2229,9.36624 -22.4481,11.80358 -35.8477,11.33767 -10.2038,-0.67094 -18.309,-3.42209 -26.9629,-8.65294 -0.2117,-10.65422 -1.0877,-22.37116 -1.569,-33.164 8.3266,17.99608 20.7636,40.08424 44.7519,37.6777 11.8209,-1.18594 18.6074,-12.9154 16.5859,-24.30506 -5.5062,-31.17331 -56.4478,-29.3145 -60.5581,-60.24427 -1.2322,-8.68567 1.184,-17.49456 6.6805,-24.33393 8.0379,-10.09109 18.2993,-13.50452 30.4957,-14.83486 z"
     id="path18"
     style="fill:#153961;fill-opacity:1;stroke:#153961;stroke-width:1.92523;stroke-dasharray:none;stroke-opacity:1" />
  <defs
     id="defs36">
    <linearGradient
       id="gradient_0"
       gradientUnits="userSpaceOnUse"
       x1="130.92456"
       y1="321.75705"
       x2="120.96951"
       y2="263.37161">
      <stop
         offset="0"
         stop-color="#12375F"
         id="stop35" />
      <stop
         offset="1"
         stop-color="#364F73"
         id="stop36" />
    </linearGradient>
  </defs>
  <defs
     id="defs39">
    <linearGradient
       id="gradient_1"
       gradientUnits="userSpaceOnUse"
       x1="237.08293"
       y1="439.71503"
       x2="239.91972"
       y2="487.3295">
      <stop
         offset="0"
         stop-color="#12355D"
         id="stop38" />
      <stop
         offset="1"
         stop-color="#39506F"
         id="stop39" />
    </linearGradient>
  </defs>
  <g
     id="g92-7-4"
     transform="matrix(0.8336487,0.4813073,-0.4813073,0.8336487,221.24349,-419.46781)">
    <path
       fill="#f46b2c"
       d="m 274.54393,624.83778 c 13.84817,3.58688 28.9539,16.89892 40.30779,24.44829 9.81376,6.52563 15.59927,5.32033 25.8446,16.01384 13.46864,14.05883 14.16606,44.77287 12.98619,63.47001 l -0.4517,-0.34261 c -2.92648,-15.72918 -1.41358,-31.02037 -7.46605,-46.37002 -7.35384,-20.42143 -24.551,-23.48966 -42.75797,-30.05304 -5.01258,-1.80738 -28.76675,-12.34645 -31.21223,-16.57743 3.57716,-4.49672 3.38247,-4.80542 2.74937,-10.58904 z"
       id="path37-6-6-3"
       style="fill:#153961;fill-opacity:0.996078" />
    <g
       id="rect88-0-9"
       style="opacity:0.993213;stroke:none"
       transform="translate(151.51515,-9.0909091)">
      <path
         id="path92-0-0"
         style="baseline-shift:baseline;display:inline;overflow:visible;vector-effect:none;fill:#153961;fill-opacity:0.996078;stroke:#153961;stroke-width:1.12885;stroke-linecap:round;stroke-linejoin:round;stroke-opacity:0.996078;paint-order:stroke fill markers;enable-background:accumulate;stop-color:#000000;stop-opacity:1"
         d="m 118.5332,735.60547 v 2.5332 h 83.72657 c 1.88445,0 5.19933,6.08705 5.26757,11.51172 0.0795,6.31581 -3.46827,12.57031 -5.26757,12.57031 H 118.5332 v 2.53516 h 85.84766 c 1.89433,0 6.83057,-7.5722 6.74687,-15.2168 -0.0718,-6.56598 -4.7629,-13.93359 -6.74687,-13.93359 z"
         sodipodi:nodetypes="ccsssccsssc" />
      <path
         style="baseline-shift:baseline;display:inline;overflow:visible;fill:#153961;stroke:#153961;stroke-width:1.7;stroke-linecap:round;stroke-linejoin:round;stroke-dasharray:none;stroke-opacity:0.996078;paint-order:stroke fill markers;enable-background:accumulate;stop-color:#000000;stop-opacity:1"
         d="m 121.75009,741.60631 h 76.86782 c 1.69177,0 4.6687,4.33425 4.72996,8.19712 0.0713,4.49746 -3.11462,8.95152 -4.72996,8.95152 h -76.86782 c 2.77913,0 4.29441,-5.72063 4.18117,-8.76768 -0.13562,-3.64898 -1.94425,-8.38096 -4.18117,-8.38096 z"
         id="path90-9-5"
         sodipodi:nodetypes="sssssss" />
    </g>
  </g>
  <g
     id="g92-3-5-6"
     transform="matrix(0.92981431,-0.24914299,0.24914299,0.92981431,-228.95572,-265.10067)"
     style="fill:#f46b2c;fill-opacity:1">
    <path
       fill="#f46b2c"
       d="m 274.54393,624.83778 c 13.84817,3.58688 28.9539,16.89892 40.30779,24.44829 9.81376,6.52563 15.59927,5.32033 25.8446,16.01384 13.46864,14.05883 14.16606,44.77287 12.98619,63.47001 l -0.4517,-0.34261 c -2.92648,-15.72918 -1.41358,-31.02037 -7.46605,-46.37002 -7.35384,-20.42143 -24.551,-23.48966 -42.75797,-30.05304 -5.01258,-1.80738 -28.76675,-12.34645 -31.21223,-16.57743 3.57716,-4.49672 3.38247,-4.80542 2.74937,-10.58904 z"
       id="path37-6-0-6-3"
       style="fill:#f46b2c;fill-opacity:1" />
    <g
       id="rect88-6-2-6"
       style="opacity:0.993213;fill:#f46b2c;fill-opacity:1;stroke:none"
       transform="translate(151.51515,-9.0909091)">
      <path
         id="path92-2-8-3"
         style="baseline-shift:baseline;display:inline;overflow:visible;vector-effect:none;fill:#f46b2c;fill-opacity:1;stroke:#f46b2c;stroke-width:1.12885;stroke-linecap:round;stroke-linejoin:round;stroke-opacity:1;paint-order:stroke fill markers;enable-background:accumulate;stop-color:#000000;stop-opacity:1"
         d="m 118.5332,735.60547 v 2.5332 h 83.72657 c 1.88445,0 5.19933,6.08705 5.26757,11.51172 0.0795,6.31581 -3.46827,12.57031 -5.26757,12.57031 H 118.5332 v 2.53516 h 85.84766 c 1.89433,0 6.83057,-7.5722 6.74687,-15.2168 -0.0718,-6.56598 -4.7629,-13.93359 -6.74687,-13.93359 z"
         sodipodi:nodetypes="ccsssccsssc" />
      <path
         style="baseline-shift:baseline;display:inline;overflow:visible;fill:#f46b2c;fill-opacity:1;stroke:#f46b2c;stroke-width:1.7;stroke-linecap:round;stroke-linejoin:round;stroke-dasharray:none;stroke-opacity:1;paint-order:stroke fill markers;enable-background:accumulate;stop-color:#000000;stop-opacity:1"
         d="m 121.75009,741.60631 h 76.86782 c 1.69177,0 4.6687,4.33425 4.72996,8.19712 0.0713,4.49746 -3.11462,8.95152 -4.72996,8.95152 h -76.86782 c 2.77913,0 4.29441,-5.72063 4.18117,-8.76768 -0.13562,-3.64898 -1.94425,-8.38096 -4.18117,-8.38096 z"
         id="path90-2-5-0"
         sodipodi:nodetypes="sssssss" />
    </g>
  </g>
  <g
     id="g92-7-4-4"
     transform="matrix(0.4813073,-0.8336487,0.8336487,0.4813073,-431.39591,166.32902)">
    <path
       fill="#f46b2c"
       d="m 274.54393,624.83778 c 13.84817,3.58688 28.9539,16.89892 40.30779,24.44829 9.81376,6.52563 15.59927,5.32033 25.8446,16.01384 13.46864,14.05883 14.16606,44.77287 12.98619,63.47001 l -0.4517,-0.34261 c -2.92648,-15.72918 -1.41358,-31.02037 -7.46605,-46.37002 -7.35384,-20.42143 -24.551,-23.48966 -42.75797,-30.05304 -5.01258,-1.80738 -28.76675,-12.34645 -31.21223,-16.57743 3.57716,-4.49672 3.38247,-4.80542 2.74937,-10.58904 z"
       id="path37-6-6-3-0"
       style="fill:#153961;fill-opacity:0.996078" />
    <g
       id="rect88-0-9-4"
       style="opacity:0.993213;stroke:none"
       transform="translate(151.51515,-9.0909091)">
      <path
         id="path92-0-0-6"
         style="baseline-shift:baseline;display:inline;overflow:visible;vector-effect:none;fill:#153961;fill-opacity:0.996078;stroke:#153961;stroke-width:1.12885;stroke-linecap:round;stroke-linejoin:round;stroke-opacity:0.996078;paint-order:stroke fill markers;enable-background:accumulate;stop-color:#000000;stop-opacity:1"
         d="m 118.5332,735.60547 v 2.5332 h 83.72657 c 1.88445,0 5.19933,6.08705 5.26757,11.51172 0.0795,6.31581 -3.46827,12.57031 -5.26757,12.57031 H 118.5332 v 2.53516 h 85.84766 c 1.89433,0 6.83057,-7.5722 6.74687,-15.2168 -0.0718,-6.56598 -4.7629,-13.93359 -6.74687,-13.93359 z"
         sodipodi:nodetypes="ccsssccsssc" />
      <path
         style="baseline-shift:baseline;display:inline;overflow:visible;fill:#153961;stroke:#153961;stroke-width:1.7;stroke-linecap:round;stroke-linejoin:round;stroke-dasharray:none;stroke-opacity:0.996078;paint-order:stroke fill markers;enable-background:accumulate;stop-color:#000000;stop-opacity:1"
         d="m 121.75009,741.60631 h 76.86782 c 1.69177,0 4.6687,4.33425 4.72996,8.19712 0.0713,4.49746 -3.11462,8.95152 -4.72996,8.95152 h -76.86782 c 2.77913,0 4.29441,-5.72063 4.18117,-8.76768 -0.13562,-3.64898 -1.94425,-8.38096 -4.18117,-8.38096 z"
         id="path90-9-5-4"
         sodipodi:nodetypes="sssssss" />
    </g>
  </g>
  <g
     id="g92-3-5-6-6"
     transform="matrix(-0.24914299,-0.92981431,0.92981431,-0.24914299,-274.30252,606.96577)"
     style="fill:#f46b2c;fill-opacity:1">
    <path
       fill="#f46b2c"
       d="m 274.54393,624.83778 c 13.84817,3.58688 28.9539,16.89892 40.30779,24.44829 9.81376,6.52563 15.59927,5.32033 25.8446,16.01384 13.46864,14.05883 14.16606,44.77287 12.98619,63.47001 l -0.4517,-0.34261 c -2.92648,-15.72918 -1.41358,-31.02037 -7.46605,-46.37002 -7.35384,-20.42143 -24.551,-23.48966 -42.75797,-30.05304 -5.01258,-1.80738 -28.76675,-12.34645 -31.21223,-16.57743 3.57716,-4.49672 3.38247,-4.80542 2.74937,-10.58904 z"
       id="path37-6-0-6-3-4"
       style="fill:#f46b2c;fill-opacity:1" />
    <g
       id="rect88-6-2-6-3"
       style="opacity:0.993213;fill:#f46b2c;fill-opacity:1;stroke:none"
       transform="translate(151.51515,-9.0909091)">
      <path
         id="path92-2-8-3-8"
         style="baseline-shift:baseline;display:inline;overflow:visible;vector-effect:none;fill:#f46b2c;fill-opacity:1;stroke:#f46b2c;stroke-width:1.12885;stroke-linecap:round;stroke-linejoin:round;stroke-opacity:1;paint-order:stroke fill markers;enable-background:accumulate;stop-color:#000000;stop-opacity:1"
         d="m 118.5332,735.60547 v 2.5332 h 83.72657 c 1.88445,0 5.19933,6.08705 5.26757,11.51172 0.0795,6.31581 -3.46827,12.57031 -5.26757,12.57031 H 118.5332 v 2.53516 h 85.84766 c 1.89433,0 6.83057,-7.5722 6.74687,-15.2168 -0.0718,-6.56598 -4.7629,-13.93359 -6.74687,-13.93359 z"
         sodipodi:nodetypes="ccsssccsssc" />
      <path
         style="baseline-shift:baseline;display:inline;overflow:visible;fill:#f46b2c;fill-opacity:1;stroke:#f46b2c;stroke-width:1.7;stroke-linecap:round;stroke-linejoin:round;stroke-dasharray:none;stroke-opacity:1;paint-order:stroke fill markers;enable-background:accumulate;stop-color:#000000;stop-opacity:1"
         d="m 121.75009,741.60631 h 76.86782 c 1.69177,0 4.6687,4.33425 4.72996,8.19712 0.0713,4.49746 -3.11462,8.95152 -4.72996,8.95152 h -76.86782 c 2.77913,0 4.29441,-5.72063 4.18117,-8.76768 -0.13562,-3.64898 -1.94425,-8.38096 -4.18117,-8.38096 z"
         id="path90-2-5-0-4"
         sodipodi:nodetypes="sssssss" />
    </g>
  </g>
  <g
     id="g92-7-4-0"
     transform="matrix(-0.8336487,-0.4813073,0.4813073,-0.8336487,154.75385,808.33777)">
    <path
       fill="#f46b2c"
       d="m 274.54393,624.83778 c 13.84817,3.58688 28.9539,16.89892 40.30779,24.44829 9.81376,6.52563 15.59927,5.32033 25.8446,16.01384 13.46864,14.05883 14.16606,44.77287 12.98619,63.47001 l -0.4517,-0.34261 c -2.92648,-15.72918 -1.41358,-31.02037 -7.46605,-46.37002 -7.35384,-20.42143 -24.551,-23.48966 -42.75797,-30.05304 -5.01258,-1.80738 -28.76675,-12.34645 -31.21223,-16.57743 3.57716,-4.49672 3.38247,-4.80542 2.74937,-10.58904 z"
       id="path37-6-6-3-9"
       style="fill:#153961;fill-opacity:0.996078" />
    <g
       id="rect88-0-9-3"
       style="opacity:0.993213;stroke:none"
       transform="translate(151.51515,-9.0909091)">
      <path
         id="path92-0-0-7"
         style="baseline-shift:baseline;display:inline;overflow:visible;vector-effect:none;fill:#153961;fill-opacity:0.996078;stroke:#153961;stroke-width:1.12885;stroke-linecap:round;stroke-linejoin:round;stroke-opacity:0.996078;paint-order:stroke fill markers;enable-background:accumulate;stop-color:#000000;stop-opacity:1"
         d="m 118.5332,735.60547 v 2.5332 h 83.72657 c 1.88445,0 5.19933,6.08705 5.26757,11.51172 0.0795,6.31581 -3.46827,12.57031 -5.26757,12.57031 H 118.5332 v 2.53516 h 85.84766 c 1.89433,0 6.83057,-7.5722 6.74687,-15.2168 -0.0718,-6.56598 -4.7629,-13.93359 -6.74687,-13.93359 z"
         sodipodi:nodetypes="ccsssccsssc" />
      <path
         style="baseline-shift:baseline;display:inline;overflow:visible;fill:#153961;stroke:#153961;stroke-width:1.7;stroke-linecap:round;stroke-linejoin:round;stroke-dasharray:none;stroke-opacity:0.996078;paint-order:stroke fill markers;enable-background:accumulate;stop-color:#000000;stop-opacity:1"
         d="m 121.75009,741.60631 h 76.86782 c 1.69177,0 4.6687,4.33425 4.72996,8.19712 0.0713,4.49746 -3.11462,8.95152 -4.72996,8.95152 h -76.86782 c 2.77913,0 4.29441,-5.72063 4.18117,-8.76768 -0.13562,-3.64898 -1.94425,-8.38096 -4.18117,-8.38096 z"
         id="path90-9-5-5"
         sodipodi:nodetypes="sssssss" />
    </g>
  </g>
  <g
     id="g92-3-5-6-7"
     transform="matrix(-0.92981431,0.24914299,-0.24914299,-0.92981431,599.83276,646.80226)"
     style="fill:#f46b2c;fill-opacity:1">
    <path
       fill="#f46b2c"
       d="m 274.54393,624.83778 c 13.84817,3.58688 28.9539,16.89892 40.30779,24.44829 9.81376,6.52563 15.59927,5.32033 25.8446,16.01384 13.46864,14.05883 14.16606,44.77287 12.98619,63.47001 l -0.4517,-0.34261 c -2.92648,-15.72918 -1.41358,-31.02037 -7.46605,-46.37002 -7.35384,-20.42143 -24.551,-23.48966 -42.75797,-30.05304 -5.01258,-1.80738 -28.76675,-12.34645 -31.21223,-16.57743 3.57716,-4.49672 3.38247,-4.80542 2.74937,-10.58904 z"
       id="path37-6-0-6-3-2"
       style="fill:#f46b2c;fill-opacity:1" />
    <g
       id="rect88-6-2-6-9"
       style="opacity:0.993213;fill:#f46b2c;fill-opacity:1;stroke:none"
       transform="translate(151.51515,-9.0909091)">
      <path
         id="path92-2-8-3-7"
         style="baseline-shift:baseline;display:inline;overflow:visible;vector-effect:none;fill:#f46b2c;fill-opacity:1;stroke:#f46b2c;stroke-width:1.12885;stroke-linecap:round;stroke-linejoin:round;stroke-opacity:1;paint-order:stroke fill markers;enable-background:accumulate;stop-color:#000000;stop-opacity:1"
         d="m 118.5332,735.60547 v 2.5332 h 83.72657 c 1.88445,0 5.19933,6.08705 5.26757,11.51172 0.0795,6.31581 -3.46827,12.57031 -5.26757,12.57031 H 118.5332 v 2.53516 h 85.84766 c 1.89433,0 6.83057,-7.5722 6.74687,-15.2168 -0.0718,-6.56598 -4.7629,-13.93359 -6.74687,-13.93359 z"
         sodipodi:nodetypes="ccsssccsssc" />
      <path
         style="baseline-shift:baseline;display:inline;overflow:visible;fill:#f46b2c;fill-opacity:1;stroke:#f46b2c;stroke-width:1.7;stroke-linecap:round;stroke-linejoin:round;stroke-dasharray:none;stroke-opacity:1;paint-order:stroke fill markers;enable-background:accumulate;stop-color:#000000;stop-opacity:1"
         d="m 121.75009,741.60631 h 76.86782 c 1.69177,0 4.6687,4.33425 4.72996,8.19712 0.0713,4.49746 -3.11462,8.95152 -4.72996,8.95152 h -76.86782 c 2.77913,0 4.29441,-5.72063 4.18117,-8.76768 -0.13562,-3.64898 -1.94425,-8.38096 -4.18117,-8.38096 z"
         id="path90-2-5-0-5"
         sodipodi:nodetypes="sssssss" />
    </g>
  </g>
  <g
     id="g92-7-4-4-6"
     transform="matrix(-0.4813073,0.8336487,-0.8336487,-0.4813073,810.46543,221.51691)">
    <path
       fill="#f46b2c"
       d="m 274.54393,624.83778 c 13.84817,3.58688 28.9539,16.89892 40.30779,24.44829 9.81376,6.52563 15.59927,5.32033 25.8446,16.01384 13.46864,14.05883 14.16606,44.77287 12.98619,63.47001 l -0.4517,-0.34261 c -2.92648,-15.72918 -1.41358,-31.02037 -7.46605,-46.37002 -7.35384,-20.42143 -24.551,-23.48966 -42.75797,-30.05304 -5.01258,-1.80738 -28.76675,-12.34645 -31.21223,-16.57743 3.57716,-4.49672 3.38247,-4.80542 2.74937,-10.58904 z"
       id="path37-6-6-3-0-5"
       style="fill:#153961;fill-opacity:0.996078" />
    <g
       id="rect88-0-9-4-3"
       style="opacity:0.993213;stroke:none"
       transform="translate(151.51515,-9.0909091)">
      <path
         id="path92-0-0-6-0"
         style="baseline-shift:baseline;display:inline;overflow:visible;vector-effect:none;fill:#153961;fill-opacity:0.996078;stroke:#153961;stroke-width:1.12885;stroke-linecap:round;stroke-linejoin:round;stroke-opacity:0.996078;paint-order:stroke fill markers;enable-background:accumulate;stop-color:#000000;stop-opacity:1"
         d="m 118.5332,735.60547 v 2.5332 h 83.72657 c 1.88445,0 5.19933,6.08705 5.26757,11.51172 0.0795,6.31581 -3.46827,12.57031 -5.26757,12.57031 H 118.5332 v 2.53516 h 85.84766 c 1.89433,0 6.83057,-7.5722 6.74687,-15.2168 -0.0718,-6.56598 -4.7629,-13.93359 -6.74687,-13.93359 z"
         sodipodi:nodetypes="ccsssccsssc" />
      <path
         style="baseline-shift:baseline;display:inline;overflow:visible;fill:#153961;stroke:#153961;stroke-width:1.7;stroke-linecap:round;stroke-linejoin:round;stroke-dasharray:none;stroke-opacity:0.996078;paint-order:stroke fill markers;enable-background:accumulate;stop-color:#000000;stop-opacity:1"
         d="m 121.75009,741.60631 h 76.86782 c 1.69177,0 4.6687,4.33425 4.72996,8.19712 0.0713,4.49746 -3.11462,8.95152 -4.72996,8.95152 h -76.86782 c 2.77913,0 4.29441,-5.72063 4.18117,-8.76768 -0.13562,-3.64898 -1.94425,-8.38096 -4.18117,-8.38096 z"
         id="path90-9-5-4-4"
         sodipodi:nodetypes="sssssss" />
    </g>
  </g>
  <g
     id="g92-3-5-6-6-8"
     transform="matrix(0.24914299,0.92981431,-0.92981431,0.24914299,645.17963,-221.16795)"
     style="fill:#f46b2c;fill-opacity:1">
    <path
       fill="#f46b2c"
       d="m 274.54393,624.83778 c 13.84817,3.58688 28.9539,16.89892 40.30779,24.44829 9.81376,6.52563 15.59927,5.32033 25.8446,16.01384 13.46864,14.05883 14.16606,44.77287 12.98619,63.47001 l -0.4517,-0.34261 c -2.92648,-15.72918 -1.41358,-31.02037 -7.46605,-46.37002 -7.35384,-20.42143 -24.551,-23.48966 -42.75797,-30.05304 -5.01258,-1.80738 -28.76675,-12.34645 -31.21223,-16.57743 3.57716,-4.49672 3.38247,-4.80542 2.74937,-10.58904 z"
       id="path37-6-0-6-3-4-5"
       style="fill:#f46b2c;fill-opacity:1" />
    <g
       id="rect88-6-2-6-3-5"
       style="opacity:0.993213;fill:#f46b2c;fill-opacity:1;stroke:none"
       transform="translate(151.51515,-9.0909091)">
      <path
         id="path92-2-8-3-8-5"
         style="baseline-shift:baseline;display:inline;overflow:visible;vector-effect:none;fill:#f46b2c;fill-opacity:1;stroke:#f46b2c;stroke-width:1.12885;stroke-linecap:round;stroke-linejoin:round;stroke-opacity:1;paint-order:stroke fill markers;enable-background:accumulate;stop-color:#000000;stop-opacity:1"
         d="m 118.5332,735.60547 v 2.5332 h 83.72657 c 1.88445,0 5.19933,6.08705 5.26757,11.51172 0.0795,6.31581 -3.46827,12.57031 -5.26757,12.57031 H 118.5332 v 2.53516 h 85.84766 c 1.89433,0 6.83057,-7.5722 6.74687,-15.2168 -0.0718,-6.56598 -4.7629,-13.93359 -6.74687,-13.93359 z"
         sodipodi:nodetypes="ccsssccsssc" />
      <path
         style="baseline-shift:baseline;display:inline;overflow:visible;fill:#f46b2c;fill-opacity:1;stroke:#f46b2c;stroke-width:1.7;stroke-linecap:round;stroke-linejoin:round;stroke-dasharray:none;stroke-opacity:1;paint-order:stroke fill markers;enable-background:accumulate;stop-color:#000000;stop-opacity:1"
         d="m 121.75009,741.60631 h 76.86782 c 1.69177,0 4.6687,4.33425 4.72996,8.19712 0.0713,4.49746 -3.11462,8.95152 -4.72996,8.95152 h -76.86782 c 2.77913,0 4.29441,-5.72063 4.18117,-8.76768 -0.13562,-3.64898 -1.94425,-8.38096 -4.18117,-8.38096 z"
         id="path90-2-5-0-4-4"
         sodipodi:nodetypes="sssssss" />
    </g>
  </g>
</svg>
