<?xml version="1.0" encoding="UTF-8" standalone="no"?>
<!-- Uploaded to: SVG Repo, www.svgrepo.com, Generator: SVG Repo Mixer Tools -->

<svg
   height="800px"
   width="800px"
   version="1.1"
   id="Layer_1"
   viewBox="0 0 512.005 512.005"
   xml:space="preserve"
   sodipodi:docname="refresh-svgrepo-com.svg"
   inkscape:version="1.4.2 (ebf0e940d0, 2025-05-08)"
   xmlns:inkscape="http://www.inkscape.org/namespaces/inkscape"
   xmlns:sodipodi="http://sodipodi.sourceforge.net/DTD/sodipodi-0.dtd"
   xmlns="http://www.w3.org/2000/svg"
   xmlns:svg="http://www.w3.org/2000/svg"><defs
   id="defs1" /><sodipodi:namedview
   id="namedview1"
   pagecolor="#ffffff"
   bordercolor="#000000"
   borderopacity="0.25"
   inkscape:showpageshadow="2"
   inkscape:pageopacity="0.0"
   inkscape:pagecheckerboard="0"
   inkscape:deskcolor="#d1d1d1"
   inkscape:zoom="0.34338873"
   inkscape:cx="199.48238"
   inkscape:cy="403.33298"
   inkscape:window-width="1920"
   inkscape:window-height="995"
   inkscape:window-x="0"
   inkscape:window-y="0"
   inkscape:window-maximized="1"
   inkscape:current-layer="Layer_1" />
<path
   style="fill:#64c37d;stroke-width:22.75990226;stroke-dasharray:none;stroke:#64c37d;stroke-opacity:1"
   d="m 343.85003,78.755666 63.74496,-58.503845 c 6.95498,-6.383599 17.07205,-7.948655 25.63022,-3.9657 8.56041,3.982771 13.87805,12.730279 13.47305,22.163147 l -5.88908,137.378822 c -1.1e-4,0.009 -0.001,0.0194 -0.003,0.0285 -0.0291,0.63558 -0.0971,1.26676 -0.17528,1.89473 -0.0168,0.12838 -0.0184,0.26045 -0.0365,0.38849 -0.10766,0.74889 -0.25103,1.48906 -0.42995,2.22275 -0.0546,0.22396 -0.13533,0.44154 -0.19663,0.66605 -0.14079,0.50572 -0.27504,1.01448 -0.44932,1.5113 -0.0699,0.19695 -0.16052,0.38664 -0.23484,0.58395 -0.19476,0.51512 -0.39003,1.02938 -0.6233,1.52929 -0.0577,0.12639 -0.13235,0.2443 -0.192,0.3695 -0.27133,0.56049 -0.55383,1.11608 -0.87038,1.65608 -0.0376,0.0614 -0.0801,0.11657 -0.11713,0.17887 -0.35569,0.59305 -0.73135,1.1725 -1.14158,1.73552 -0.0203,0.0264 -0.0441,0.0526 -0.0644,0.0789 -0.43052,0.58354 -0.88566,1.15161 -1.37435,1.69913 -0.0443,0.0503 -0.0931,0.0952 -0.14066,0.14402 -0.46728,0.51344 -0.95008,1.0129 -1.46852,1.48839 -0.008,0.008 -0.014,0.0155 -0.0223,0.0229 -0.16019,0.14653 -0.33594,0.27326 -0.50043,0.41656 -0.40495,0.35032 -0.80696,0.70354 -1.24086,1.02933 -0.55001,0.41393 -1.12165,0.7942 -1.70283,1.15687 -0.0743,0.0452 -0.13988,0.0991 -0.21593,0.14531 -0.003,0.002 -0.004,0.003 -0.005,0.003 -0.6648,0.40414 -1.349,0.77443 -2.04886,1.10742 -0.43183,0.20985 -0.8754,0.37534 -1.31478,0.5535 -0.26264,0.107 -0.51901,0.23008 -0.78684,0.32852 -0.57897,0.21036 -1.16401,0.37993 -1.7496,0.54282 -0.14159,0.0404 -0.27919,0.0913 -0.42063,0.12815 -0.6266,0.16089 -1.26078,0.28427 -1.89369,0.3905 -0.11325,0.0197 -0.2261,0.0497 -0.34176,0.0673 -0.64735,0.0998 -1.29647,0.16203 -1.94483,0.20626 -0.11194,0.008 -0.22263,0.0265 -0.3339,0.0321 -0.67773,0.0363 -1.35415,0.0344 -2.02758,0.0143 -0.0865,-0.004 -0.17114,0.003 -0.2557,9.6e-4 l -0.036,-0.002 c -0.0379,-0.003 -0.0738,-0.002 -0.11082,-0.005 l -137.23335,-5.88271 c -7.88451,-0.33748 -14.94633,-4.61568 -18.94456,-11.19276 -0.78489,-1.29115 -1.45163,-2.67285 -1.98314,-4.12856 -3.23562,-8.86864 -0.81107,-18.81416 6.14528,-25.19742 l 41.4431,-38.036 C 259.60354,98.244345 207.19144,102.41007 162.4302,129.62056 81.803072,178.63403 56.082702,284.10459 105.09618,364.73172 c 49.01399,80.62799 154.48593,106.34869 235.11306,57.33522 53.425,-32.47722 84.87925,-91.49775 82.08937,-154.02886 -0.57623,-12.87968 9.39791,-23.78559 22.27607,-24.35855 12.87797,-0.57519 23.7818,9.39553 24.35959,22.27778 3.55137,79.56383 -36.48121,154.66633 -104.47628,196.00073 C 261.8352,524.34275 127.59048,491.60635 65.204735,388.98185 2.8200292,286.35906 35.557464,152.11605 138.18026,89.731341 202.81458,50.439942 279.98368,48.892029 343.85003,78.755666 Z"
   id="path1" />
</svg>
