<?xml version="1.0" encoding="UTF-8" standalone="no"?>
<svg
   width="1331.451"
   height="399.24701"
   viewBox="0 0 1331.4511 399.24701"
   version="1.1"
   id="svg14"
   sodipodi:docname="logo-for-the-project---canon-missae---database-for.svg"
   inkscape:version="1.4.4 (dcaf3e7, 2026-05-05)"
   xmlns:inkscape="http://www.inkscape.org/namespaces/inkscape"
   xmlns:sodipodi="http://sodipodi.sourceforge.net/DTD/sodipodi-0.dtd"
   xmlns="http://www.w3.org/2000/svg"
   xmlns:svg="http://www.w3.org/2000/svg">
  <defs
     id="defs14" />
  <sodipodi:namedview
     id="namedview14"
     pagecolor="#ffffff"
     bordercolor="#000000"
     borderopacity="0.25"
     inkscape:showpageshadow="2"
     inkscape:pageopacity="0.0"
     inkscape:pagecheckerboard="false"
     inkscape:deskcolor="#d1d1d1"
     inkscape:zoom="0.57291667"
     inkscape:cx="541.96364"
     inkscape:cy="208.58182"
     inkscape:window-width="2227"
     inkscape:window-height="1186"
     inkscape:window-x="0"
     inkscape:window-y="810"
     inkscape:window-maximized="0"
     inkscape:current-layer="svg14" />
  <path
     fill="#0c1e5b"
     d="m 755.55994,55.376394 c 43.601,-3.779 48.222,41.02 56.832,72.035006 7.736,27.867 18.221,67.577 30.284,94.43 1.495,3.329 9.841,9.105 13.036,11.419 4.204,-18.047 4.811,-48.423 -0.475,-66.546 -0.789,-2.706 -10.851,-8.846 -13.462,-12.37 -0.939,-5.681 10.279,-7.621 14.872,-9.181 -1.485,-12.214 -10.063,-21.716 -17.914,-30.714 19.38,6.842 27.834,6.614 47.155,0.602 -5.132,6.437 -13.272,16.075 -14.003,24.491 -0.872,10.039 10.235,8.643 14.083,13.132 -0.859,6.213 -13.655,9.203 -15.363,16.098 -4.279,17.907 -1.258,38.595 -1.831,56.829 -1.11,35.358 17.002,51.631 49.991,58.449 3.73,0.771 11.84,1.384 13.31,4.698 -0.6,2.634 -0.08,1.734 -1.83,3.563 -5.14,1.259 -60.875,0.508 -70.826,0.511 l -37.793,0.112 c -5.914,0.047 -27.35,1.411 -30.804,-2.749 3.029,-9.88 49.805,1.175 63.421,-51.168 l -45.797,0.068 c -1.838,-5.299 -3.715,-12.758 -5.283,-18.295 -8.546,-29.454 -14.929,-59.325 -24.133,-89.287 -14.611,32.22 -30.88,77.573 -42.187,111.152 -5.25,-13.884 -10.503,-33.78 -15.184,-48.398 -7.317,-22.922 -15.52,-45.551 -24.59,-67.837 -11.136,40.423 -17.378,71.44 -25.154,112.408 l -43.542,0.126 c 25.737,-15.927 32.479,-32.319 42.797,-60.651 7.861,-21.586 14.539,-43.335 21.227,-65.31301 -7.785,-19.665996 -25.087,-54.472996 -51.281,-35.726996 -4.133,2.958 -7.492,6.912 -11.277,10.344 l -0.602,-0.278 c 1.518,-5.654 17.372,-20 22.809,-23.367 28.323,-17.541 50.739,-5.773 66.921,18.938 0.267,-0.476 0.539,-0.949 0.816,-1.419 7.928,-13.459 20.8,-22.238 35.777,-26.105 z m -35.239,29.453 c 9.312,23.134996 17.42,47.584006 26.492,70.864006 1.82,4.669 6.7,21.615 7.834,23.798 1.066,-0.884 0.981,-0.924 1.321,-2.214 2.999,-8.575 19.891,-52.387 19.148,-60.127 -1.753,-18.263006 -15.069,-46.880006 -38.168,-45.406006 -7.785,3.252 -10.889,7.093 -16.627,13.085 z"
     id="path1" />
  <path
     fill="#0c1e5b"
     d="m 98.750932,87.020394 c 1.882998,-0.116 3.769998,-0.176 5.656998,-0.18 31.40801,0.032 49.22101,10.246 70.60601,31.686006 -34.727,9.245 -53.958,27.976 -61.13901,62.996 -3.318,-14.791 -3.709,-38.96 4.90701,-52.109 7.961,-12.149 18.267,-14.627 31.17,-17.52501 -6.902,-6.125 -16.999,-12.375996 -26.317,-13.045996 -50.374008,-3.623 -75.406008,63.859006 -46.594008,99.895006 4.686,6.985 17.371,15.87 25.267998,19.249 30.88701,13.215 41.71501,-2.201 65.00601,-11.306 -14.958,19.849 -32.531,30.122 -57.65301,32.223 -44.595998,3.729 -91.778998,-22.249 -95.501998,-70.244 -1.399,-18.805 4.722,-37.396 17.018,-51.692 17.837,-20.593006 41.229,-28.007006 67.573,-29.947006 z"
     id="path2" />
  <path
     fill="#0c1e5b"
     d="m 545.68994,119.6714 c 2.004,1.808 3.535,19.155 3.806,22.614 40.504,-36.60901 61.039,-18.128 57.173,29.464 -1.306,16.09 0.5,36.603 0.666,52.912 0.06,5.937 2.656,10.252 6.878,14.256 l -51.894,0.076 c 0.868,-0.764 1.71,-1.557 2.524,-2.378 7.478,-7.509 6.106,-28.285 6.219,-38.723 0.139,-12.939 -0.012,-26.132 -0.043,-39.081 0.043,-15.704 -10.233,-12.098 -20.371,-7.509 -1.094,13.7 -2.546,78.798 4.826,87.765 -16.211,-0.241 -32.915,-0.085 -49.163,-0.106 1.784,-1.812 3.84,-3.756 5.009,-6.033 3.643,-7.094 5.583,-70.916 2.48,-78.657 -2.16,-5.387 -8.518,-7.316 -13.427,-9.309 15.055,-8.52 30.161,-16.951 45.317,-25.291 z"
     id="path3" />
  <path
     fill="#0c1e5b"
     d="m 319.18494,121.1704 c 2.39,2.133 3.302,18.125 3.635,21.792 12.506,-13.508 43.417,-32.46901 53.958,-6.432 8.411,20.776 -3.51,85.084 9.409,102.1 -1.813,0.369 -13.107,0.262 -15.672,0.263 l -35.161,-0.008 c 1.244,-0.742 2.561,-1.508 3.598,-2.53 8.466,-8.343 5.223,-64.386 5.098,-77.075 -0.285,-15.562 -9.854,-13.726 -20.635,-7.383 -0.138,19.436 -3.927,73.931 6.246,86.99 l -50.507,-0.055 c 2.148,-1.967 3.373,-3.582 4.832,-5.971 5.269,-8.631 5.11,-76.267 3.256,-81.914 -2.95,-3.953 -6.886,-4.391 -11.628,-5.643 13.685,-7.045 30.426,-16.214 43.571,-24.134 z"
     id="path4" />
  <path
     fill="#0c1e5b"
     d="m 1214.2049,124.4764 c 24.61,0.937 38.42,16.335 44.51,38.726 l -58.15,30.508 c 7.96,15.286 16.21,28.172 36.3,25.697 11.49,-1.415 19.41,-8.042 26.25,-16.845 l -4.84,9.859 c -8.84,13.985 -22.84,25.312 -39.74,27.001 -12.92,1.307 -25.83,-2.66 -35.79,-11.003 -36.64,-30.085 -18.13,-99.219 31.46,-103.943 z m -16.45,66.551 c 2.26,-2.864 3.35,-4.399 6.16,-6.678 6.34,-5.227 11.2,-8.028 17.99,-12.467 -3.41,-11.923 -7.95,-36.348 -22.56,-37.859 -17.2,3.999 -12.05,22.24 -8.82,35.071 1.94,7.459 4.35,14.785 7.23,21.933 z"
     id="path5" />
  <path
     fill="#0c1e5b"
     d="m 229.98394,123.6784 c 36.204,-2.726 36.585,23.968 36.369,50.414 l -0.085,30.087 c 0.021,4.962 -0.272,12.737 2.643,16.85 1.889,2.665 4.662,2.54 7.834,3.124 l 0.466,0.678 c -3.201,12.132 -25.54,20.562 -35.985,12.719 -6.457,-4.849 -7.426,-8.791 -9.003,-16.05 -1.116,1.506 -2.275,2.98 -3.474,4.421 -17.499,20.71 -51.837,19.786 -54.534,-11.748 -1.001,-11.707 2.554,-22.137 10.432,-31.062 10.14,-10.636 28.016,-19.019 41.368,-24.683 -15.099,12.973 -25.257,37.785 -15.752,56.562 7.266,2.287 13.958,7.024 20.645,1.755 2.679,-7.868 1.864,-56.217 -0.418,-65.403 -4.435,-17.858 -37.97,-4.967 -49.074,-1.322 16.473,-13.19 26.852,-23.248 48.568,-26.342 z"
     id="path6" />
  <path
     fill="#0c1e5b"
     d="m 1115.9749,125.1864 c 5.22,-0.709 12.58,-0.092 17.45,1.559 8.03,2.695 14.37,8.959 17.14,16.963 4.72,13.146 0.59,41.248 1.92,55.995 1.02,11.29 -2.23,20.024 11.51,24.297 l 0.33,0.712 c -6.11,15.552 -42.24,26.582 -46.11,-2.748 -1.74,2.163 -3.5,4.297 -5.32,6.427 -15.08,17.706 -48.24,16.962 -51.7,-10.06 -1.49,-11.678 0.9,-22.035 8.1,-31.574 10.03,-11.664 28.06,-19.942 41.81,-27.297 -4.45,4.137 -8.36,8.654 -11.44,13.91 -5.83,9.979 -8.63,23.287 -5.56,34.544 1.17,4.279 4.35,7.408 8.19,9.483 3.13,1.686 7.3,2.768 10.79,1.627 0.99,-0.326 2.86,-1.386 3.3,-2.304 3.33,-6.871 1.54,-57.37 -1.07,-65.269 -0.73,-2.21 -1.78,-5.141 -3.98,-6.236 -13.54,-6.752 -32.23,2.013 -45.33,6.371 16.13,-11.551 30.06,-23.204 49.97,-26.4 z"
     id="path7" />
  <path
     fill="#0c1e5b"
     d="m 800.01494,21.833394 c 10.65,8.399 9.511,15.616 26.752,21.497 39.635,13.519 64.739,12.663 102.368,-5.052 -1.47,19.247 -6.34,32.949 -16.59,49.11 -26.799,34.022006 -61.491,39.919006 -91.974,5.197 -17.733,-20.199 -22.279,-44.424 -20.556,-70.752 z"
     id="path8" />
  <path
     fill="#0c1e5b"
     d="m 922.77494,125.1544 c 8.55,-0.998 25.05,2.485 37.1,2.244 0.36,11.512 0.86,26.901 2.11,38.141 -7.34,-13.721 -22.41,-39.757 -40.22,-37.714 -10.39,2.507 -14.63,10.774 -7.17,19.486 19.95,23.293 72.02,33.599 45.27,74.645 -6.66,10.226 -19.91,16.449 -31.82,18.549 -9.04,0.351 -16.45,-1.822 -25.33,-2.74 -4.657,-0.482 -10.945,0.014 -15.701,0.345 0.874,-13.913 -0.573,-27.688 -1.049,-41.611 7.286,12.52 14.72,24.919 26.88,33.362 7.2,4.992 20.36,10.292 26.63,0.999 1.98,-2.943 2.06,-8.098 1.3,-11.447 -3.71,-16.117 -21.34,-22.428 -33.99,-30.74 -18.809,-12.368 -21.056,-30.453 -8.862,-48.764 6.102,-9.162 14.262,-12.842 24.852,-14.755 z"
     id="path9" />
  <path
     fill="#0c1e5b"
     d="m 1010.2249,125.1534 c 11.12,-0.919 23.16,3.002 36.85,2.782 0.56,10.865 0.94,21.739 1.13,32.617 -6.85,-11.273 -23.73,-35.621 -40,-33.2 -5.72,0.887 -10.84996,8.521 -8.83996,13.985 7.69996,23.461 49.59996,28.132 54.66996,53.05 4.53,22.254 -14.85,41.546 -34.91,46.012 -12.39,0.857 -16.87,-1.678 -28.69996,-3.562 -2.83,-0.452 -10.17,-0.253 -13.32,-0.178 -0.43,-10.973 -0.24,-22.959 -0.28,-34.011 9.38,13.231 23.82996,36.704 42.96996,34.189 3.11,-0.431 5.89,-2.143 7.67,-4.72 4.83,-6.853 2.17,-16.656 -2.92,-22.611 -16.4,-19.178 -54.22996,-24.549 -44.64996,-58.032 4.38,-15.332 14.57,-24.111 30.32996,-26.321 z"
     id="path10" />
  <path
     fill="#0c1e5b"
     d="m 458.41394,239.4774 c 5.946,-3.328 11.181,-7.047 12.704,-14.631 3.875,-24.005 -8.402,-51.143 -19.322,-71.929 -3.788,-7.209 -13.742,-19.124 -13.724,-26.689 0.011,-4.433 21.442,-1.059 24.782,0.15 14.237,5.123 25.832,15.729 32.201,29.454 6.914,15.147 7.586,32.407 1.87,48.046 -6.206,17.003 -20.619,31.483 -38.511,35.599 z"
     id="path11" />
  <path
     fill="#0c1e5b"
     d="m 412.91694,138.0204 c 3.431,-2.736 16.03,-11.616 19.866,-10.486 -3.122,1.562 -5.639,4.114 -7.156,7.258 -9.109,19.191 7.1,64.354 18.668,80.963 4.021,5.774 9.572,16.167 11.813,22.588 l 0.134,0.391 2.172,0.743 c -2.648,0.786 -5.701,1.135 -8.458,1.207 -14.347,0.377 -28.256,-4.968 -38.658,-14.856 -11.31,-10.973 -17.772,-26.006 -17.95,-41.763 -0.375,-19.545 6.436,-32.474 19.569,-46.045 z"
     id="path12" />
  <path
     fill="#0c1e5b"
     d="m 1281.3949,81.505394 12.51,-0.037 0.06,29.302996 28.45,-0.111 -0.06,12.17901 -28.38,-0.057 c -0.14,9.386 -0.04,19.036 -0.05,28.446 l -12.1,0.006 -0.05,-28.021 c -8.57,-0.465 -19.92,-0.141 -28.71,-0.118 l -0.05,-12.51901 28.32,0.212 z"
     id="path13" />
  <path
     fill="#0c1e5b"
     d="m 912.74494,14.207394 c 13.84,-1.092 22.22,1.653 35.63,4.888 -32.9,1.288 -39.69,30.241 -88.002,26.026 -14.407,-1.165 -25.699,-4.718 -37.591,-13.016 38.691,12.549 55.21,-12.516 89.963,-17.898 z"
     id="path14" />
  <text
     xml:space="preserve"
     style="font-weight:300;font-size:68.76px;line-height:1;font-family:STSong;-inkscape-font-specification:'STSong Light';letter-spacing:0px;writing-mode:lr-tb;direction:ltr;opacity:0.993213;fill:#cb0000;stroke:#ffffff;stroke-width:15.6322;stroke-linecap:round;stroke-linejoin:round;paint-order:stroke fill markers"
     x="41.47644"
     y="376.46396"
     id="text14"><tspan
       sodipodi:role="line"
       id="tspan14"
       x="41.47644"
       y="376.46396"
       style="font-style:normal;font-variant:normal;font-weight:normal;font-stretch:normal;font-size:68.76px;font-family:'Gill Sans';-inkscape-font-specification:'Gill Sans';fill:#f55d00;fill-opacity:1;stroke:none;stroke-width:15.6322">Database &amp; Analysis of the Eucharistic Prayer</tspan></text>
</svg>
